<svg width="3962" height="1229" xmlns="http://www.w3.org/2000/svg" xmlns:xlink="http://www.w3.org/1999/xlink" xml:space="preserve" overflow="hidden"><g transform="translate(-166 -922)"><path d="M336 1238C336 1207.62 360.624 1183 391 1183 421.376 1183 446 1207.62 446 1238 446 1268.38 421.376 1293 391 1293 360.624 1293 336 1268.38 336 1238Z" fill="#D77864" fill-rule="evenodd"/><path d="M989 1238C989 1207.62 1013.62 1183 1044 1183 1074.38 1183 1099 1207.62 1099 1238 1099 1268.38 1074.38 1293 1044 1293 1013.62 1293 989 1268.38 989 1238Z" fill="#D77864" fill-rule="evenodd"/><path d="M676 1536C676 1505.62 700.625 1481 731 1481 761.376 1481 786 1505.62 786 1536 786 1566.38 761.376 1591 731 1591 700.625 1591 676 1566.38 676 1536Z" fill="#D77864" fill-rule="evenodd"/><path d="M336 1823C336 1792.62 360.624 1768 391 1768 421.376 1768 446 1792.62 446 1823 446 1853.38 421.376 1878 391 1878 360.624 1878 336 1853.38 336 1823Z" fill="#D77864" fill-rule="evenodd"/><path d="M676 1829C676 1798.62 700.625 1774 731 1774 761.376 1774 786 1798.62 786 1829 786 1859.38 761.376 1884 731 1884 700.625 1884 676 1859.38 676 1829Z" fill="#D77864" fill-rule="evenodd"/><path d="M989 1822C989 1791.62 1013.62 1767 1044 1767 1074.38 1767 1099 1791.62 1099 1822 1099 1852.38 1074.38 1877 1044 1877 1013.62 1877 989 1852.38 989 1822Z" fill="#D77864" fill-rule="evenodd"/><path d="M392.5 1877.5 392.5 1927.27" stroke="#AA96C3" stroke-width="6.875" stroke-miterlimit="8" fill="none" fill-rule="evenodd"/><rect x="337.5" y="1926.5" width="110" height="42.0002" stroke="#AA96C3" stroke-width="6.875" stroke-miterlimit="8" fill="none"/><path d="M336.5 1925.5 445.641 1966.75" stroke="#AA96C3" stroke-width="6.875" stroke-miterlimit="8" fill="none" fill-rule="evenodd"/><path d="M0 0 110 40.3907" stroke="#AA96C3" stroke-width="6.875" stroke-miterlimit="8" fill="none" fill-rule="evenodd" transform="matrix(1 0 0 -1 337.5 1967.89)"/><path d="M731.5 1884.5 731.5 1934.27" stroke="#AA96C3" stroke-width="6.875" stroke-miterlimit="8" fill="none" fill-rule="evenodd"/><rect x="676.5" y="1934.5" width="110" height="40.9999" stroke="#AA96C3" stroke-width="6.875" stroke-miterlimit="8" fill="none"/><path d="M676.5 1933.5 785.641 1974.75" stroke="#AA96C3" stroke-width="6.875" stroke-miterlimit="8" fill="none" fill-rule="evenodd"/><path d="M0 0 110 40.3907" stroke="#AA96C3" stroke-width="6.875" stroke-miterlimit="8" fill="none" fill-rule="evenodd" transform="matrix(1 0 0 -1 676.5 1975.89)"/><path d="M1045.5 1876.5 1045.5 1926.27" stroke="#AA96C3" stroke-width="6.875" stroke-miterlimit="8" fill="none" fill-rule="evenodd"/><rect x="990.5" y="1925.5" width="110" height="42.0002" stroke="#AA96C3" stroke-width="6.875" stroke-miterlimit="8" fill="none"/><path d="M989.5 1925.5 1098.64 1966.75" stroke="#AA96C3" stroke-width="6.875" stroke-miterlimit="8" fill="none" fill-rule="evenodd"/><path d="M0 0 110 40.3907" stroke="#AA96C3" stroke-width="6.875" stroke-miterlimit="8" fill="none" fill-rule="evenodd" transform="matrix(1 0 0 -1 990.5 1966.89)"/><path d="M0 0 261.385 209.32" stroke="#4BB9AA" stroke-width="6.875" stroke-miterlimit="8" fill="none" fill-rule="evenodd" transform="matrix(1 0 0 -1 430.5 1784.82)"/><path d="M0 0 0.000360892 183.21" stroke="#4BB9AA" stroke-width="6.875" stroke-miterlimit="8" fill="none" fill-rule="evenodd" transform="matrix(1 0 0 -1 731.5 1774.71)"/><path d="M1005.68 1783.17 769.5 1575.5" stroke="#4BB9AA" stroke-width="6.875" stroke-miterlimit="8" fill="none" fill-rule="evenodd"/><path d="M0 0 236.177 220.135" stroke="#4BB9AA" stroke-width="6.875" stroke-miterlimit="8" fill="none" fill-rule="evenodd" transform="matrix(1 0 0 -1 769.5 1497.63)"/><path d="M691.885 1497.63 430.5 1277.5" stroke="#4BB9AA" stroke-width="6.875" stroke-miterlimit="8" fill="none" fill-rule="evenodd"/><path d="M390.5 1185.27 390.5 1135.5" stroke="#AA96C3" stroke-width="6.875" stroke-miterlimit="8" fill="none" fill-rule="evenodd"/><path d="M346.5 1096.5C346.5 1072.2 365.976 1052.5 390 1052.5 414.024 1052.5 433.5 1072.2 433.5 1096.5 433.5 1120.8 414.024 1140.5 390 1140.5 365.976 1140.5 346.5 1120.8 346.5 1096.5Z" stroke="#AA96C3" stroke-width="6.875" stroke-miterlimit="8" fill="none" fill-rule="evenodd"/><path d="M359.5 1098.74C365.786 1090.8 372.072 1082.86 378.929 1084.79 385.786 1086.73 394.548 1109.01 400.643 1110.37 406.738 1111.73 411.119 1102.33 415.5 1092.93" stroke="#AA96C3" stroke-width="6.875" stroke-miterlimit="8" fill="none" fill-rule="evenodd"/><path d="M1048.5 1185.27 1048.5 1135.5" stroke="#AA96C3" stroke-width="6.875" stroke-miterlimit="8" fill="none" fill-rule="evenodd"/><path d="M1004.5 1096.5C1004.5 1072.2 1023.98 1052.5 1048 1052.5 1072.02 1052.5 1091.5 1072.2 1091.5 1096.5 1091.5 1120.8 1072.02 1140.5 1048 1140.5 1023.98 1140.5 1004.5 1120.8 1004.5 1096.5Z" stroke="#AA96C3" stroke-width="6.875" stroke-miterlimit="8" fill="none" fill-rule="evenodd"/><path d="M1017.5 1098.74C1023.79 1090.8 1030.07 1082.86 1036.93 1084.79 1043.79 1086.73 1052.55 1109.01 1058.64 1110.37 1064.74 1111.73 1069.12 1102.33 1073.5 1092.93" stroke="#AA96C3" stroke-width="6.875" stroke-miterlimit="8" fill="none" fill-rule="evenodd"/><text fill="#AA96C3" font-family="Arial,Arial_MSFontService,sans-serif" font-weight="700" font-size="73" transform="matrix(1 0 0 1 250.69 1016)">150 MW</text><text fill="#AA96C3" font-family="Arial,Arial_MSFontService,sans-serif" font-weight="700" font-size="73" transform="matrix(1 0 0 1 911.048 1020)">150 MW</text><text fill="#AA96C3" font-family="Arial,Arial_MSFontService,sans-serif" font-weight="700" font-size="73" transform="matrix(1 0 0 1 233.217 2070)">100 MW</text><text fill="#AA96C3" font-family="Arial,Arial_MSFontService,sans-serif" font-weight="700" font-size="73" transform="matrix(1 0 0 1 593.437 2065)">100 MW</text><text fill="#AA96C3" font-family="Arial,Arial_MSFontService,sans-serif" font-weight="700" font-size="73" transform="matrix(1 0 0 1 936.829 2065)">100 MW</text><path d="M807.39 1422.75C807.39 1422.75 807.39 1422.75 807.39 1422.75L786.163 1367.82 792.645 1369.37C792.902 1369.43 793.169 1369.46 793.426 1369.46 794.932 1369.46 796.305 1368.43 796.667 1366.9 797.096 1365.11 795.99 1363.32 794.198 1362.89L740.517 1350.06C740.517 1350.06 740.517 1349.97 740.517 1349.93 740.517 1342.88 734.759 1337.13 727.687 1337.13 723.16 1337.13 719.185 1339.49 716.897 1343.04L662.739 1330.09C660.938 1329.66 659.146 1330.77 658.717 1332.56 658.288 1334.34 659.393 1336.14 661.185 1336.57L666.447 1337.83C666.418 1337.89 666.38 1337.95 666.351 1338.03L644.696 1394.08C644.143 1395.51 643.914 1397.06 644.029 1398.58 645.039 1411.85 656.277 1422.23 669.621 1422.23 682.965 1422.23 694.384 1411.7 695.242 1398.26 695.327 1396.9 695.127 1395.58 694.651 1394.33 694.651 1394.33 694.651 1394.33 694.651 1394.33L673.462 1339.5 714.896 1349.4C714.896 1349.58 714.867 1349.75 714.867 1349.92 714.867 1355.83 718.899 1360.8 724.36 1362.27L724.36 1455.34 691.963 1455.34C690.123 1455.34 688.627 1456.84 688.627 1458.67 688.627 1460.51 690.123 1462 691.963 1462L763.421 1462C765.26 1462 766.757 1460.51 766.757 1458.67 766.757 1456.84 765.26 1455.34 763.421 1455.34L731.023 1455.34 731.023 1362.27C734.273 1361.4 737.009 1359.28 738.696 1356.46L779.224 1366.14C779.177 1366.24 779.129 1366.32 779.091 1366.42L757.435 1422.47C756.882 1423.91 756.653 1425.46 756.768 1426.97 757.778 1440.24 769.016 1450.62 782.36 1450.62 795.704 1450.62 807.123 1440.09 807.981 1426.65 808.067 1425.29 807.866 1423.97 807.39 1422.73ZM669.63 1415.57C660.394 1415.57 652.521 1408.85 650.929 1399.95L688.322 1399.95C686.739 1408.86 678.904 1415.57 669.63 1415.57ZM652.159 1393.3 669.63 1348.09 687.101 1393.3 652.159 1393.3ZM727.697 1356.07C724.303 1356.07 721.539 1353.31 721.539 1349.92 721.539 1346.54 724.303 1343.78 727.697 1343.78 731.09 1343.78 733.854 1346.54 733.854 1349.92 733.854 1353.31 731.09 1356.07 727.697 1356.07ZM782.369 1376.49 799.841 1421.7 764.898 1421.7 782.369 1376.49ZM782.369 1443.99C773.133 1443.99 765.26 1437.26 763.669 1428.36L801.061 1428.36C799.479 1437.27 791.644 1443.99 782.369 1443.99Z" fill="#AA96C3" fill-rule="evenodd"/><text fill="#AA96C3" font-family="Arial,Arial_MSFontService,sans-serif" font-weight="700" font-size="73" transform="matrix(1 0 0 1 817.314 1552)">Slack mismatch: 6 MW</text><path d="M2611 1258C2611 1227.62 2635.62 1203 2666 1203 2696.38 1203 2721 1227.62 2721 1258 2721 1288.38 2696.38 1313 2666 1313 2635.62 1313 2611 1288.38 2611 1258Z" fill="#D77864" fill-rule="evenodd"/><path d="M3264 1258C3264 1227.62 3288.62 1203 3319 1203 3349.38 1203 3374 1227.62 3374 1258 3374 1288.38 3349.38 1313 3319 1313 3288.62 1313 3264 1288.38 3264 1258Z" fill="#D77864" fill-rule="evenodd"/><path d="M2950 1556C2950 1525.62 2974.62 1501 3005 1501 3035.38 1501 3060 1525.62 3060 1556 3060 1586.38 3035.38 1611 3005 1611 2974.62 1611 2950 1586.38 2950 1556Z" fill="#D77864" fill-rule="evenodd"/><path d="M2611 1843C2611 1812.62 2635.62 1788 2666 1788 2696.38 1788 2721 1812.62 2721 1843 2721 1873.38 2696.38 1898 2666 1898 2635.62 1898 2611 1873.38 2611 1843Z" fill="#D77864" fill-rule="evenodd"/><path d="M2950 1849C2950 1818.62 2974.62 1794 3005 1794 3035.38 1794 3060 1818.62 3060 1849 3060 1879.38 3035.38 1904 3005 1904 2974.62 1904 2950 1879.38 2950 1849Z" fill="#D77864" fill-rule="evenodd"/><path d="M3264 1841C3264 1810.62 3288.62 1786 3319 1786 3349.38 1786 3374 1810.62 3374 1841 3374 1871.38 3349.38 1896 3319 1896 3288.62 1896 3264 1871.38 3264 1841Z" fill="#D77864" fill-rule="evenodd"/><path d="M2666.5 1896.5 2666.5 1946.27" stroke="#AA96C3" stroke-width="6.875" stroke-miterlimit="8" fill="none" fill-rule="evenodd"/><rect x="2611.5" y="1946.5" width="110" height="40.9999" stroke="#AA96C3" stroke-width="6.875" stroke-miterlimit="8" fill="none"/><path d="M2611.5 1945.5 2720.64 1986.75" stroke="#AA96C3" stroke-width="6.875" stroke-miterlimit="8" fill="none" fill-rule="evenodd"/><path d="M0 0 110 40.3907" stroke="#AA96C3" stroke-width="6.875" stroke-miterlimit="8" fill="none" fill-rule="evenodd" transform="matrix(1 0 0 -1 2612.5 1987.89)"/><path d="M3006.5 1904.5 3006.5 1954.27" stroke="#AA96C3" stroke-width="6.875" stroke-miterlimit="8" fill="none" fill-rule="evenodd"/><rect x="2951.5" y="1954.5" width="110" height="40.9999" stroke="#AA96C3" stroke-width="6.875" stroke-miterlimit="8" fill="none"/><path d="M2950.5 1953.5 3059.64 1994.75" stroke="#AA96C3" stroke-width="6.875" stroke-miterlimit="8" fill="none" fill-rule="evenodd"/><path d="M0 0 110 40.3907" stroke="#AA96C3" stroke-width="6.875" stroke-miterlimit="8" fill="none" fill-rule="evenodd" transform="matrix(1 0 0 -1 2951.5 1995.89)"/><path d="M3320.5 1895.5 3320.5 1945.27" stroke="#AA96C3" stroke-width="6.875" stroke-miterlimit="8" fill="none" fill-rule="evenodd"/><rect x="3265.5" y="1945.5" width="110" height="40.9999" stroke="#AA96C3" stroke-width="6.875" stroke-miterlimit="8" fill="none"/><path d="M3264.5 1944.5 3373.64 1985.75" stroke="#AA96C3" stroke-width="6.875" stroke-miterlimit="8" fill="none" fill-rule="evenodd"/><path d="M0 0 110 40.3907" stroke="#AA96C3" stroke-width="6.875" stroke-miterlimit="8" fill="none" fill-rule="evenodd" transform="matrix(1 0 0 -1 3265.5 1986.89)"/><path d="M0 0 261.385 209.32" stroke="#4BB9AA" stroke-width="6.875" stroke-miterlimit="8" fill="none" fill-rule="evenodd" transform="matrix(1 0 0 -1 2705.5 1804.82)"/><path d="M0 0 0.000360892 183.21" stroke="#4BB9AA" stroke-width="6.875" stroke-miterlimit="8" fill="none" fill-rule="evenodd" transform="matrix(1 0 0 -1 3005.5 1794.71)"/><path d="M3280.68 1803.17 3044.5 1595.5" stroke="#4BB9AA" stroke-width="6.875" stroke-miterlimit="8" fill="none" fill-rule="evenodd"/><path d="M0 0 236.177 220.135" stroke="#4BB9AA" stroke-width="6.875" stroke-miterlimit="8" fill="none" fill-rule="evenodd" transform="matrix(1 0 0 -1 3044.5 1517.64)"/><path d="M2966.89 1517.64 2705.5 1297.5" stroke="#4BB9AA" stroke-width="6.875" stroke-miterlimit="8" fill="none" fill-rule="evenodd"/><path d="M2665.5 1204.27 2665.5 1154.5" stroke="#AA96C3" stroke-width="6.875" stroke-miterlimit="8" fill="none" fill-rule="evenodd"/><path d="M2621.5 1116C2621.5 1091.98 2640.98 1072.5 2665 1072.5 2689.02 1072.5 2708.5 1091.98 2708.5 1116 2708.5 1140.02 2689.02 1159.5 2665 1159.5 2640.98 1159.5 2621.5 1140.02 2621.5 1116Z" stroke="#AA96C3" stroke-width="6.875" stroke-miterlimit="8" fill="none" fill-rule="evenodd"/><path d="M2634.5 1118.74C2640.79 1110.8 2647.07 1102.86 2653.93 1104.79 2660.79 1106.73 2669.55 1129.01 2675.64 1130.37 2681.74 1131.73 2686.12 1122.33 2690.5 1112.93" stroke="#AA96C3" stroke-width="6.875" stroke-miterlimit="8" fill="none" fill-rule="evenodd"/><path d="M3323.5 1204.27 3323.5 1154.5" stroke="#AA96C3" stroke-width="6.875" stroke-miterlimit="8" fill="none" fill-rule="evenodd"/><path d="M3279.5 1116C3279.5 1091.98 3298.98 1072.5 3323 1072.5 3347.02 1072.5 3366.5 1091.98 3366.5 1116 3366.5 1140.02 3347.02 1159.5 3323 1159.5 3298.98 1159.5 3279.5 1140.02 3279.5 1116Z" stroke="#AA96C3" stroke-width="6.875" stroke-miterlimit="8" fill="none" fill-rule="evenodd"/><path d="M3292.5 1118.74C3298.79 1110.8 3305.07 1102.86 3311.93 1104.79 3318.79 1106.73 3327.55 1129.01 3333.64 1130.37 3339.74 1131.73 3344.12 1122.33 3348.5 1112.93" stroke="#AA96C3" stroke-width="6.875" stroke-miterlimit="8" fill="none" fill-rule="evenodd"/><text fill="#AA96C3" font-family="Arial,Arial_MSFontService,sans-serif" font-weight="700" font-size="73" transform="matrix(1 0 0 1 2525.51 1035)">15</text><text fill="#00A6D9" font-family="Arial,Arial_MSFontService,sans-serif" font-weight="700" font-size="73" transform="matrix(1 0 0 1 2606.86 1035)">3</text><text fill="#AA96C3" font-family="Arial,Arial_MSFontService,sans-serif" font-weight="700" font-size="73" transform="matrix(1 0 0 1 2668.17 1035)">MW</text><text fill="#AA96C3" font-family="Arial,Arial_MSFontService,sans-serif" font-weight="700" font-size="73" transform="matrix(1 0 0 1 3185.87 1040)">15</text><text fill="#00A6D9" font-family="Arial,Arial_MSFontService,sans-serif" font-weight="700" font-size="73" transform="matrix(1 0 0 1 3267.22 1040)">3</text><text fill="#AA96C3" font-family="Arial,Arial_MSFontService,sans-serif" font-weight="700" font-size="73" transform="matrix(1 0 0 1 3328.52 1040)">MW</text><text fill="#AA96C3" font-family="Arial,Arial_MSFontService,sans-serif" font-weight="700" font-size="73" transform="matrix(1 0 0 1 2508.04 2090)">100 MW</text><text fill="#AA96C3" font-family="Arial,Arial_MSFontService,sans-serif" font-weight="700" font-size="73" transform="matrix(1 0 0 1 2868.26 2085)">100 MW</text><text fill="#AA96C3" font-family="Arial,Arial_MSFontService,sans-serif" font-weight="700" font-size="73" transform="matrix(1 0 0 1 3211.65 2085)">100 MW</text><path d="M3082.39 1441.75C3082.39 1441.75 3082.39 1441.75 3082.39 1441.75L3061.16 1386.82 3067.64 1388.37C3067.9 1388.43 3068.17 1388.46 3068.43 1388.46 3069.93 1388.46 3071.3 1387.43 3071.67 1385.9 3072.1 1384.11 3070.99 1382.32 3069.2 1381.89L3015.52 1369.06C3015.52 1369.06 3015.52 1368.97 3015.52 1368.93 3015.52 1361.88 3009.76 1356.13 3002.69 1356.13 2998.16 1356.13 2994.19 1358.49 2991.9 1362.04L2937.74 1349.09C2935.94 1348.66 2934.15 1349.77 2933.72 1351.56 2933.29 1353.34 2934.39 1355.14 2936.19 1355.57L2941.45 1356.83C2941.42 1356.89 2941.38 1356.95 2941.35 1357.02L2919.7 1413.08C2919.14 1414.51 2918.91 1416.06 2919.03 1417.58 2920.04 1430.84 2931.28 1441.23 2944.62 1441.23 2957.97 1441.23 2969.38 1430.7 2970.24 1417.26 2970.33 1415.9 2970.13 1414.58 2969.65 1413.33 2969.65 1413.33 2969.65 1413.33 2969.65 1413.33L2948.46 1358.5 2989.9 1368.4C2989.9 1368.58 2989.87 1368.75 2989.87 1368.92 2989.87 1374.83 2993.9 1379.8 2999.36 1381.27L2999.36 1474.34 2966.96 1474.34C2965.12 1474.34 2963.63 1475.84 2963.63 1477.67 2963.63 1479.51 2965.12 1481 2966.96 1481L3038.42 1481C3040.26 1481 3041.76 1479.51 3041.76 1477.67 3041.76 1475.84 3040.26 1474.34 3038.42 1474.34L3006.02 1474.34 3006.02 1381.27C3009.27 1380.39 3012.01 1378.28 3013.7 1375.46L3054.22 1385.14C3054.18 1385.24 3054.13 1385.32 3054.09 1385.42L3032.44 1441.47C3031.88 1442.91 3031.65 1444.46 3031.77 1445.97 3032.78 1459.24 3044.02 1469.62 3057.36 1469.62 3070.7 1469.62 3082.12 1459.09 3082.98 1445.65 3083.07 1444.29 3082.87 1442.97 3082.39 1441.73ZM2944.63 1434.57C2935.39 1434.57 2927.52 1427.85 2925.93 1418.95L2963.32 1418.95C2961.74 1427.86 2953.9 1434.57 2944.63 1434.57ZM2927.16 1412.3 2944.63 1367.09 2962.1 1412.3 2927.16 1412.3ZM3002.7 1375.07C2999.3 1375.07 2996.54 1372.31 2996.54 1368.92 2996.54 1365.54 2999.3 1362.78 3002.7 1362.78 3006.09 1362.78 3008.85 1365.54 3008.85 1368.92 3008.85 1372.31 3006.09 1375.07 3002.7 1375.07ZM3057.37 1395.49 3074.84 1440.7 3039.9 1440.7 3057.37 1395.49ZM3057.37 1462.99C3048.13 1462.99 3040.26 1456.26 3038.67 1447.36L3076.06 1447.36C3074.48 1456.27 3066.64 1462.99 3057.37 1462.99Z" fill="#AA96C3" fill-rule="evenodd"/><text fill="#AA96C3" font-family="Arial,Arial_MSFontService,sans-serif" font-weight="700" font-size="73" transform="matrix(1 0 0 1 3092.13 1571)">Slack mismatch: </text><text fill="#00A6D9" font-family="Arial,Arial_MSFontService,sans-serif" font-weight="700" font-size="73" transform="matrix(1 0 0 1 3691.98 1571)">0.0012</text><text fill="#AA96C3" font-family="Arial,Arial_MSFontService,sans-serif" font-weight="700" font-size="73" transform="matrix(1 0 0 1 3936.61 1571)">MW</text><path d="M1840 1460 2299 1460 2299 1415 2389 1505 2299 1595 2299 1550 1840 1550Z" fill="#00A6D9" fill-rule="evenodd"/><text fill="#00A6D9" font-family="Arial,Arial_MSFontService,sans-serif" font-weight="700" font-size="92" transform="matrix(1 0 0 1 1808.49 1297)">Active Power </text><text fill="#00A6D9" font-family="Arial,Arial_MSFontService,sans-serif" font-weight="700" font-size="92" transform="matrix(1 0 0 1 1839.16 1407)">Distribution</text></g></svg>