<svg width="4380" height="1721" xmlns="http://www.w3.org/2000/svg" xmlns:xlink="http://www.w3.org/1999/xlink" xml:space="preserve" overflow="hidden"><defs><clipPath id="clip0"><rect x="44" y="571" width="4380" height="1721"/></clipPath></defs><g clip-path="url(#clip0)" transform="translate(-44 -571)"><path d="M1022 1299.83C1022 1277.28 1040.28 1259 1062.83 1259L2220.17 1259C2242.72 1259 2261 1277.28 2261 1299.83L2261 1463.17C2261 1485.72 2242.72 1504 2220.17 1504L1062.83 1504C1040.28 1504 1022 1485.72 1022 1463.17Z" fill="#00A6D9" fill-rule="evenodd"/><text fill="#FFFFFF" font-family="Calibri,Calibri_MSFontService,sans-serif" font-weight="700" font-size="73" transform="matrix(1 0 0 1 1232.47 1406)">Equation system </text><text fill="#FFFFFF" font-family="Calibri,Calibri_MSFontService,sans-serif" font-weight="700" font-size="73" transform="matrix(1 0 0 1 1753.25 1406)">definition</text><path d="M1022 1634.83C1022 1612.28 1040.28 1594 1062.83 1594L2220.17 1594C2242.72 1594 2261 1612.28 2261 1634.83L2261 1798.17C2261 1820.72 2242.72 1839 2220.17 1839L1062.83 1839C1040.28 1839 1022 1820.72 1022 1798.17Z" fill="#7D599F" fill-rule="evenodd"/><text fill="#FFFFFF" font-family="Calibri,Calibri_MSFontService,sans-serif" font-weight="700" font-size="73" transform="matrix(1 0 0 1 1274 1742)">Equation system </text><text fill="#FFFFFF" font-family="Calibri,Calibri_MSFontService,sans-serif" font-weight="700" font-size="73" transform="matrix(1 0 0 1 1794.78 1742)">solving</text><path d="M1022 611.834C1022 589.282 1040.28 571 1062.83 571L2220.17 571C2242.72 571 2261 589.282 2261 611.834L2261 775.166C2261 797.718 2242.72 816 2220.17 816L1062.83 816C1040.28 816 1022 797.718 1022 775.166Z" fill="#009E8F" fill-rule="evenodd"/><text fill="#FFFFFF" font-family="Calibri,Calibri_MSFontService,sans-serif" font-weight="700" font-size="73" transform="matrix(1 0 0 1 1098.12 674)">Creating</text><text fill="#FFFFFF" font-family="Calibri,Calibri_MSFontService,sans-serif" font-weight="700" font-size="73" transform="matrix(1 0 0 1 1370.25 674)">an </text><text fill="#FFFFFF" font-family="Calibri,Calibri_MSFontService,sans-serif" font-weight="700" font-size="73" transform="matrix(1 0 0 1 1462.49 674)">internal</text><text fill="#FFFFFF" font-family="Calibri,Calibri_MSFontService,sans-serif" font-weight="700" font-size="73" transform="matrix(1 0 0 1 1718.01 674)">network model </text><text fill="#FFFFFF" font-family="Calibri,Calibri_MSFontService,sans-serif" font-weight="700" font-size="73" transform="matrix(1 0 0 1 1269.72 762)">adapted</text><text fill="#FFFFFF" font-family="Calibri,Calibri_MSFontService,sans-serif" font-weight="700" font-size="73" transform="matrix(1 0 0 1 1538.99 762)">to computation</text><path d="M1022 2076.83C1022 2054.28 1040.28 2036 1062.83 2036L2220.17 2036C2242.72 2036 2261 2054.28 2261 2076.83L2261 2240.17C2261 2262.72 2242.72 2281 2220.17 2281L1062.83 2281C1040.28 2281 1022 2262.72 1022 2240.17Z" fill="#F6AB4D" fill-rule="evenodd"/><text fill="#FFFFFF" font-family="Calibri,Calibri_MSFontService,sans-serif" font-weight="700" font-size="73" transform="matrix(1 0 0 1 1433.85 2184)">Result</text><text fill="#FFFFFF" font-family="Calibri,Calibri_MSFontService,sans-serif" font-weight="700" font-size="73" transform="matrix(1 0 0 1 1640.1 2184)">output</text><text fill="#DC0059" font-family="Consolas,Consolas_MSFontService,sans-serif" font-weight="700" font-size="64" transform="matrix(1 0 0 1 639.355 712)">LfNetwork</text><text fill="#DC0059" font-family="Consolas,Consolas_MSFontService,sans-serif" font-weight="700" font-size="64" transform="matrix(1 0 0 1 483.458 1325)">EquationSystem</text><text fill="#DC0059" font-family="Consolas,Consolas_MSFontService,sans-serif" font-weight="700" font-size="64" transform="matrix(1 0 0 1 669.951 1663)">AcSolver</text><text fill="#DC0059" font-family="Consolas,Consolas_MSFontService,sans-serif" font-weight="700" font-size="64" transform="matrix(1 0 0 1 461.725 2114)">LoadFlowResult</text><path d="M2353 1634.83C2353 1612.28 2371.28 1594 2393.83 1594L3194.17 1594C3216.72 1594 3235 1612.28 3235 1634.83L3235 1798.17C3235 1820.72 3216.72 1839 3194.17 1839L2393.83 1839C2371.28 1839 2353 1820.72 2353 1798.17Z" fill="#EC775C" fill-rule="evenodd"/><text fill="#FFFFFF" font-family="Calibri,Calibri_MSFontService,sans-serif" font-weight="700" font-size="73" transform="matrix(1 0 0 1 2513.15 1697)">Equation </text><text fill="#FFFFFF" font-family="Calibri,Calibri_MSFontService,sans-serif" font-weight="700" font-size="73" transform="matrix(1 0 0 1 2802.47 1697)">updating</text><text fill="#FFFFFF" font-family="Calibri,Calibri_MSFontService,sans-serif" font-weight="700" font-size="73" transform="matrix(1 0 0 1 2479.62 1785)">(</text><text fill="#FFFFFF" font-family="Calibri,Calibri_MSFontService,sans-serif" font-weight="700" font-size="73" transform="matrix(1 0 0 1 2502.54 1785)">specifi</text><text fill="#FFFFFF" font-family="Calibri,Calibri_MSFontService,sans-serif" font-weight="700" font-size="73" transform="matrix(1 0 0 1 2697.9 1785)">c </text><text fill="#FFFFFF" font-family="Calibri,Calibri_MSFontService,sans-serif" font-weight="700" font-size="73" transform="matrix(1 0 0 1 2745.46 1785)">treatments</text><text fill="#FFFFFF" font-family="Calibri,Calibri_MSFontService,sans-serif" font-weight="700" font-size="73" transform="matrix(1 0 0 1 3085.2 1785)">)</text><text fill="#DC0059" font-family="Consolas,Consolas_MSFontService,sans-serif" font-weight="700" font-size="64" transform="matrix(1 0 0 1 3307.42 1631)">OuterLoop</text><path d="M1646.16 1199 1646.16 1232.99 1635.84 1232.99 1635.84 1199ZM1656.47 1227.84 1641 1258.77 1625.53 1227.84Z" fill="#DC0059"/><path d="M1646.16 1504 1646.16 1568.75 1635.84 1568.75 1635.84 1504ZM1656.47 1563.6 1641 1594.54 1625.53 1563.6Z" fill="#DC0059"/><path d="M1646.16 1839 1646.16 2010.67 1635.84 2010.67 1635.84 1839ZM1656.47 2005.51 1641 2036.45 1625.53 2005.51Z" fill="#DC0059"/><path d="M0.0216783-5.1562 66.5172-4.87664 66.4739 5.43577-0.0216783 5.1562ZM61.4044-15.2107 92.2766 0.387959 61.2743 15.7265Z" fill="#DC0059" transform="matrix(1 0 0 -1 2261 1716.39)"/><path d="M0-5.15625 61.2694-5.15625C64.1171-5.15625 66.4257-2.84772 66.4257 0L66.4257 1121.11 56.1132 1121.11 56.1132 0 61.2694 5.15625 0 5.15625ZM76.7382 1115.95 61.2694 1146.89 45.8007 1115.95Z" fill="#DC0059" transform="matrix(-1.83697e-16 -1 -1 1.83697e-16 2793.89 1593.27)"/><text fill="#DC0059" font-family="Consolas,Consolas_MSFontService,sans-serif" font-weight="700" font-size="64" transform="matrix(1 0 0 1 3263.87 882)">LoadFlowEngine</text><path d="M1022 994.834C1022 972.282 1040.28 954 1062.83 954L2220.17 954C2242.72 954 2261 972.282 2261 994.834L2261 1158.17C2261 1180.72 2242.72 1199 2220.17 1199L1062.83 1199C1040.28 1199 1022 1180.72 1022 1158.17Z" fill="#2D5482" fill-rule="evenodd"/><text fill="#FFFFFF" font-family="Calibri,Calibri_MSFontService,sans-serif" font-weight="700" font-size="73" transform="matrix(1 0 0 1 1180.9 1102)">Network variable </text><text fill="#FFFFFF" font-family="Calibri,Calibri_MSFontService,sans-serif" font-weight="700" font-size="73" transform="matrix(1 0 0 1 1724.6 1102)">initialization</text><path d="M1646.16 816 1646.16 928.799 1635.84 928.799 1635.84 816ZM1656.47 923.642 1641 954.58 1625.53 923.642Z" fill="#DC0059"/><text fill="#DC0059" font-family="Consolas,Consolas_MSFontService,sans-serif" font-weight="700" font-size="64" transform="matrix(1 0 0 1 312.261 972)">VoltageInitializer</text><text fill="#A6A6A6" font-family="Courier New,Courier New_MSFontService,sans-serif" font-weight="400" font-size="50" transform="matrix(1 0 0 1 79.9221 1040)">o</text><text fill="#A6A6A6" font-family="Consolas,Consolas_MSFontService,sans-serif" font-weight="700" font-size="50" transform="matrix(1 0 0 1 141.797 1040)">UniformValueVoltageInitializer</text><text fill="#A6A6A6" font-family="Courier New,Courier New_MSFontService,sans-serif" font-weight="400" font-size="50" transform="matrix(1 0 0 1 79.9221 1100)">o</text><text fill="#A6A6A6" font-family="Consolas,Consolas_MSFontService,sans-serif" font-weight="700" font-size="50" transform="matrix(1 0 0 1 141.797 1100)">DcValueVoltageIntializer</text><text fill="#A6A6A6" font-family="Courier New,Courier New_MSFontService,sans-serif" font-weight="400" font-size="50" transform="matrix(1 0 0 1 79.9221 1161)">o</text><text fill="#A6A6A6" font-family="Consolas,Consolas_MSFontService,sans-serif" font-weight="700" font-size="50" transform="matrix(1 0 0 1 141.797 1161)">PreviousValueVoltageInitializer</text><text fill="#A6A6A6" font-family="Courier New,Courier New_MSFontService,sans-serif" font-weight="400" font-size="50" transform="matrix(1 0 0 1 79.9221 1221)">o</text><text fill="#A6A6A6" font-family="Consolas,Consolas_MSFontService,sans-serif" font-weight="700" font-size="50" transform="matrix(1 0 0 1 141.797 1221)">…</text><text fill="#A6A6A6" font-family="Courier New,Courier New_MSFontService,sans-serif" font-weight="400" font-size="50" transform="matrix(1 0 0 1 462.26 1392)">o</text><text fill="#A6A6A6" font-family="Consolas,Consolas_MSFontService,sans-serif" font-weight="700" font-size="50" transform="matrix(1 0 0 1 524.135 1392)">AcEquationSystem</text><text fill="#A6A6A6" font-family="Courier New,Courier New_MSFontService,sans-serif" font-weight="400" font-size="50" transform="matrix(1 0 0 1 462.26 1452)">o</text><text fill="#A6A6A6" font-family="Consolas,Consolas_MSFontService,sans-serif" font-weight="700" font-size="50" transform="matrix(1 0 0 1 524.135 1452)">DcEquationSystem</text><text fill="#A6A6A6" font-family="Courier New,Courier New_MSFontService,sans-serif" font-weight="400" font-size="50" transform="matrix(1 0 0 1 479.268 1729)">o</text><text fill="#A6A6A6" font-family="Consolas,Consolas_MSFontService,sans-serif" font-weight="700" font-size="50" transform="matrix(1 0 0 1 582.393 1729)">NewtonRaphson</text><text fill="#A6A6A6" font-family="Courier New,Courier New_MSFontService,sans-serif" font-weight="400" font-size="50" transform="matrix(1 0 0 1 479.268 1789)">o</text><text fill="#A6A6A6" font-family="Consolas,Consolas_MSFontService,sans-serif" font-weight="700" font-size="50" transform="matrix(1 0 0 1 582.393 1789)">NewtonKrylov</text><text fill="#A6A6A6" font-family="Courier New,Courier New_MSFontService,sans-serif" font-weight="400" font-size="50" transform="matrix(1 0 0 1 479.268 1850)">o</text><text fill="#A6A6A6" font-family="Consolas,Consolas_MSFontService,sans-serif" font-weight="700" font-size="50" transform="matrix(1 0 0 1 582.393 1850)">FastDecoupled</text><text fill="#A6A6A6" font-family="Courier New,Courier New_MSFontService,sans-serif" font-weight="400" font-size="50" transform="matrix(1 0 0 1 479.268 1910)">o</text><text fill="#A6A6A6" font-family="Consolas,Consolas_MSFontService,sans-serif" font-weight="700" font-size="50" transform="matrix(1 0 0 1 582.393 1910)">…</text><text fill="#A6A6A6" font-family="Courier New,Courier New_MSFontService,sans-serif" font-weight="400" font-size="50" transform="matrix(1 0 0 1 3275.83 1697)">o</text><text fill="#A6A6A6" font-family="Consolas,Consolas_MSFontService,sans-serif" font-weight="700" font-size="50" transform="matrix(1 0 0 1 3378.95 1697)">DistributedSlackOuterLoop</text><text fill="#A6A6A6" font-family="Courier New,Courier New_MSFontService,sans-serif" font-weight="400" font-size="50" transform="matrix(1 0 0 1 3275.83 1757)">o</text><text fill="#A6A6A6" font-family="Consolas,Consolas_MSFontService,sans-serif" font-weight="700" font-size="50" transform="matrix(1 0 0 1 3378.95 1757)">PhaseControlOuterLoop</text><text fill="#A6A6A6" font-family="Courier New,Courier New_MSFontService,sans-serif" font-weight="400" font-size="50" transform="matrix(1 0 0 1 3275.83 1818)">o</text><text fill="#A6A6A6" font-family="Consolas,Consolas_MSFontService,sans-serif" font-weight="700" font-size="50" transform="matrix(1 0 0 1 3378.95 1818)">ReactiveLimitsOuterLoop</text><text fill="#A6A6A6" font-family="Courier New,Courier New_MSFontService,sans-serif" font-weight="400" font-size="50" transform="matrix(1 0 0 1 3275.83 1878)">o</text><text fill="#A6A6A6" font-family="Consolas,Consolas_MSFontService,sans-serif" font-weight="700" font-size="50" transform="matrix(1 0 0 1 3378.95 1878)">…</text><text fill="#A6A6A6" font-family="Courier New,Courier New_MSFontService,sans-serif" font-weight="400" font-size="50" transform="matrix(1 0 0 1 3192.98 941)">o</text><text fill="#A6A6A6" font-family="Consolas,Consolas_MSFontService,sans-serif" font-weight="700" font-size="50" transform="matrix(1 0 0 1 3296.1 941)">AcLoadFlowEngine</text><text fill="#A6A6A6" font-family="Courier New,Courier New_MSFontService,sans-serif" font-weight="400" font-size="50" transform="matrix(1 0 0 1 3192.98 1001)">o</text><text fill="#A6A6A6" font-family="Consolas,Consolas_MSFontService,sans-serif" font-weight="700" font-size="50" transform="matrix(1 0 0 1 3296.1 1001)">DcLoadFlowEngine</text><text fill="#A6A6A6" font-family="Courier New,Courier New_MSFontService,sans-serif" font-weight="400" font-size="50" transform="matrix(1 0 0 1 414.186 2188)">o</text><text fill="#A6A6A6" font-family="Consolas,Consolas_MSFontService,sans-serif" font-weight="700" font-size="50" transform="matrix(1 0 0 1 517.311 2188)">AcLoadFlowResult</text><text fill="#A6A6A6" font-family="Courier New,Courier New_MSFontService,sans-serif" font-weight="400" font-size="50" transform="matrix(1 0 0 1 414.186 2248)">o</text><text fill="#A6A6A6" font-family="Consolas,Consolas_MSFontService,sans-serif" font-weight="700" font-size="50" transform="matrix(1 0 0 1 517.311 2248)">DcLoadFlowResult</text><path d="M0 0 3183.95 0.000360892" stroke="#D1D1D1" stroke-width="6.875" stroke-miterlimit="8" stroke-dasharray="6.875 6.875" fill="none" fill-rule="evenodd" transform="matrix(-1 0 0 1 3231.45 860.5)"/><path d="M0 0 0.000360892 1101" stroke="#D1D1D1" stroke-width="6.875" stroke-miterlimit="8" stroke-dasharray="6.875 6.875" fill="none" fill-rule="evenodd" transform="matrix(1 0 0 -1 47.4999 1961.5)"/><path d="M47.4999 1961.5 4128.96 1961.5" stroke="#D1D1D1" stroke-width="6.875" stroke-miterlimit="8" stroke-dasharray="6.875 6.875" fill="none" fill-rule="evenodd"/><path d="M4128.5 867.5 4128.5 1961.48" stroke="#D1D1D1" stroke-width="6.875" stroke-miterlimit="8" stroke-dasharray="6.875 6.875" fill="none" fill-rule="evenodd"/><path d="M4125.41 867.268 3786.5 864.5" stroke="#D1D1D1" stroke-width="6.875" stroke-miterlimit="8" stroke-dasharray="6.875 6.875" fill="none" fill-rule="evenodd"/></g></svg>