<svg width="3925" height="853" xmlns="http://www.w3.org/2000/svg" xmlns:xlink="http://www.w3.org/1999/xlink" xml:space="preserve" overflow="hidden"><g transform="translate(-287 -1432)"><path d="M1545.4 1905.38C1548.04 1905.38 1550.33 1905.6 1552.24 1906.03L1550.66 1912.92 1547.1 1912.92C1546.72 1911.38 1546.23 1910.27 1545.62 1909.6 1545.01 1908.92 1544.11 1908.59 1542.92 1908.59 1541.38 1908.59 1540.08 1909.01 1539.01 1909.86 1537.95 1910.71 1537.03 1911.98 1536.28 1913.65 1535.52 1915.33 1534.82 1917.58 1534.17 1920.42L1533.16 1924.84 1543.57 1924.84 1542.68 1928.93 1532.22 1928.93 1524.69 1964.27C1523.44 1970.13 1521.54 1974.5 1518.97 1977.38 1516.41 1980.26 1513.18 1981.7 1509.29 1981.7 1508.15 1981.7 1507.26 1981.63 1506.61 1981.49L1507.3 1977.93C1507.57 1978.01 1508.21 1978.05 1509.2 1978.05 1510.42 1978.05 1511.46 1977.74 1512.33 1977.12 1513.19 1976.5 1513.99 1975.42 1514.74 1973.88 1515.48 1972.34 1516.16 1970.2 1516.78 1967.47L1525.5 1928.93 1518.65 1928.93 1519.26 1926.13C1521.07 1926.03 1522.37 1925.88 1523.17 1925.69 1523.96 1925.5 1524.58 1925.22 1525.03 1924.84 1525.48 1924.46 1525.85 1923.97 1526.17 1923.36 1526.48 1922.75 1526.87 1921.64 1527.36 1920.01 1528.79 1915.15 1531 1911.5 1533.99 1909.05 1536.97 1906.61 1540.78 1905.38 1545.4 1905.38Z" fill="#FFFFFF" fill-rule="evenodd"/><text fill="#000000" fill-opacity="0" font-family="Arial,Arial_MSFontService,sans-serif" font-size="76.313" x="1506.61" y="1972.16">𝑓</text><path d="M1731.89 1673.29C1746.73 1692.58 1758.59 1718.18 1767.5 1750.09 1776.4 1782 1780.86 1816.28 1780.89 1852.95L1780.89 1856.42 1780.89 1865.06 1780.89 1921.71 1780.89 1957.74 1780.89 2013.85 1780.89 2023.03 1780.89 2025.97C1780.86 2062.63 1776.4 2096.92 1767.5 2128.83 1758.59 2160.74 1746.73 2186.34 1731.89 2205.63L1728.73 2202.99C1742.67 2183.27 1753.39 2157.56 1760.89 2125.87 1768.39 2094.18 1772.16 2060.89 1772.22 2026.01L1772.22 2023.03 1772.22 2013.85 1772.22 1957.74 1772.22 1921.71 1772.22 1865.06 1772.22 1856.42 1772.22 1852.9C1772.16 1818.02 1768.39 1784.74 1760.89 1753.05 1753.39 1721.35 1742.67 1695.65 1728.73 1675.92ZM1627.2 1673.26 1630.36 1675.9C1616.42 1695.62 1605.7 1721.33 1598.2 1753.02 1590.7 1784.71 1586.93 1818 1586.87 1852.88L1586.87 1856.4 1586.87 1865.04 1586.87 1921.69 1586.87 1957.72 1586.87 2013.87 1586.87 2023 1586.87 2026.03C1586.93 2060.91 1590.7 2094.2 1598.2 2125.89 1605.7 2157.58 1616.42 2183.29 1630.36 2203.01L1627.2 2205.65C1612.36 2186.35 1600.5 2160.75 1591.59 2128.85 1582.69 2096.94 1578.23 2062.65 1578.2 2025.99L1578.2 2023 1578.2 2013.87 1578.2 1957.72 1578.2 1921.69 1578.2 1865.04 1578.2 1856.4 1578.2 1852.92C1578.23 1816.26 1582.69 1781.97 1591.59 1750.06 1600.5 1718.16 1612.36 1692.56 1627.2 1673.26Z" fill="#FFFFFF" fill-rule="evenodd"/><path d="M1661.87 1681.87C1657.09 1682.12 1652.95 1684.18 1649.45 1688.07 1645.95 1691.97 1644.2 1696.76 1644.2 1702.46 1644.2 1705.97 1645.13 1708.92 1647 1711.3 1648.86 1713.67 1651.36 1715.01 1654.49 1715.31ZM1668.27 1681.79 1660.9 1715.27C1664.19 1715.13 1667.19 1714.15 1669.89 1712.31 1672.6 1710.47 1674.72 1707.99 1676.26 1704.85 1677.8 1701.72 1678.57 1698.31 1678.57 1694.64 1678.57 1692.48 1678.19 1690.47 1677.43 1688.6 1676.68 1686.74 1675.51 1685.19 1673.93 1683.96 1672.35 1682.73 1670.46 1682.01 1668.27 1681.79ZM1666.41 1661.16 1672.81 1661.16 1669 1678.55C1674.46 1678.96 1678.61 1680.55 1681.46 1683.33 1684.31 1686.12 1685.74 1689.88 1685.74 1694.64 1685.74 1698.23 1685.11 1701.5 1683.84 1704.43 1682.57 1707.36 1680.7 1709.93 1678.24 1712.13 1675.78 1714.33 1673.16 1715.95 1670.36 1716.99 1667.56 1718.03 1664.15 1718.55 1660.13 1718.55L1656.44 1735.41 1650.04 1735.41 1653.72 1718.55C1648.37 1718.15 1644.26 1716.55 1641.38 1713.75 1638.51 1710.95 1637.07 1707.16 1637.07 1702.38 1637.07 1698.3 1638.13 1694.44 1640.25 1690.81 1642.37 1687.18 1645.31 1684.24 1649.08 1682.02 1652.85 1679.79 1657.37 1678.63 1662.64 1678.55Z" fill="#00B0F0" fill-rule="evenodd"/><text fill="#000000" fill-opacity="0" font-family="Arial,Arial_MSFontService,sans-serif" font-size="74.2461" x="1637.07" y="1726.13">𝜙</text><path d="M1707.07 1697.09 1708.86 1697.09C1708.82 1698.17 1708.79 1699.13 1708.77 1699.98 1708.75 1700.83 1708.74 1701.65 1708.73 1702.45 1708.72 1703.26 1708.71 1704.05 1708.71 1704.83L1708.71 1727.09C1708.71 1727.7 1708.73 1728.22 1708.77 1728.66 1708.81 1729.1 1708.88 1729.47 1708.96 1729.77 1709.05 1730.08 1709.17 1730.34 1709.31 1730.55 1709.46 1730.77 1709.63 1730.95 1709.83 1731.11 1710.06 1731.34 1710.37 1731.52 1710.76 1731.65 1711.16 1731.78 1711.65 1731.88 1712.26 1731.97 1712.86 1732.06 1713.59 1732.13 1714.44 1732.18 1715.29 1732.23 1716.31 1732.26 1717.5 1732.28L1717.5 1734.83 1694.27 1734.83 1694.27 1732.28C1695.42 1732.24 1696.4 1732.2 1697.2 1732.15 1698 1732.1 1698.68 1732.03 1699.25 1731.94 1699.82 1731.85 1700.27 1731.76 1700.61 1731.65 1700.96 1731.54 1701.25 1731.41 1701.51 1731.25 1701.78 1731.08 1702.01 1730.89 1702.21 1730.68 1702.41 1730.48 1702.56 1730.22 1702.68 1729.91 1702.8 1729.59 1702.89 1729.21 1702.96 1728.76 1703.03 1728.31 1703.06 1727.76 1703.06 1727.09L1703.06 1706.09C1703.06 1705.33 1702.91 1704.79 1702.62 1704.48 1702.33 1704.16 1701.91 1704.01 1701.36 1704.01 1700.76 1704.01 1699.86 1704.32 1698.67 1704.94 1697.47 1705.57 1695.93 1706.5 1694.04 1707.73 1693.78 1707.28 1693.55 1706.83 1693.33 1706.38 1693.12 1705.93 1692.89 1705.47 1692.66 1705 1695.08 1703.68 1697.48 1702.35 1699.85 1701.03 1702.22 1699.72 1704.63 1698.4 1707.07 1697.09Z" fill="#00B0F0" fill-rule="evenodd"/><text fill="#000000" fill-opacity="0" font-family="Arial,Arial_MSFontService,sans-serif" font-size="37.7344" x="1692.66" y="1730.11">1</text><path d="M1679.35 1804.43C1680.76 1804.43 1681.93 1804.92 1682.88 1805.91 1683.83 1806.89 1684.3 1808.14 1684.3 1809.65 1684.3 1811.17 1683.83 1812.42 1682.88 1813.4 1681.93 1814.39 1680.76 1814.88 1679.35 1814.88 1677.95 1814.88 1676.77 1814.39 1675.83 1813.4 1674.88 1812.42 1674.41 1811.17 1674.41 1809.65 1674.41 1808.14 1674.88 1806.89 1675.83 1805.91 1676.77 1804.92 1677.95 1804.43 1679.35 1804.43ZM1679.35 1782.87C1680.76 1782.87 1681.93 1783.36 1682.88 1784.34 1683.83 1785.33 1684.3 1786.58 1684.3 1788.09 1684.3 1789.61 1683.83 1790.86 1682.88 1791.84 1681.93 1792.83 1680.76 1793.32 1679.35 1793.32 1677.95 1793.32 1676.77 1792.83 1675.83 1791.84 1674.88 1790.86 1674.41 1789.61 1674.41 1788.09 1674.41 1786.58 1674.88 1785.33 1675.83 1784.34 1676.77 1783.36 1677.95 1782.87 1679.35 1782.87ZM1679.35 1761.31C1680.76 1761.31 1681.93 1761.8 1682.88 1762.78 1683.83 1763.77 1684.3 1765.02 1684.3 1766.53 1684.3 1768.05 1683.83 1769.3 1682.88 1770.28 1681.93 1771.27 1680.76 1771.76 1679.35 1771.76 1677.95 1771.76 1676.77 1771.27 1675.83 1770.28 1674.88 1769.3 1674.41 1768.05 1674.41 1766.53 1674.41 1765.02 1674.88 1763.77 1675.83 1762.78 1676.77 1761.8 1677.95 1761.31 1679.35 1761.31Z" fill="#00B0F0" fill-rule="evenodd"/><text fill="#000000" fill-opacity="0" font-family="Arial,Arial_MSFontService,sans-serif" font-size="53.5771" x="1674.41" y="1808.19">⋮</text><path d="M1660.01 1874.86C1655.23 1875.1 1651.09 1877.17 1647.59 1881.06 1644.09 1884.95 1642.34 1889.74 1642.34 1895.44 1642.34 1898.96 1643.28 1901.9 1645.14 1904.28 1647 1906.66 1649.5 1907.99 1652.64 1908.29ZM1666.42 1874.77 1659.04 1908.25C1662.34 1908.11 1665.34 1907.13 1668.04 1905.29 1670.74 1903.45 1672.86 1900.97 1674.4 1897.83 1675.94 1894.7 1676.71 1891.3 1676.71 1887.62 1676.71 1885.46 1676.33 1883.45 1675.58 1881.58 1674.82 1879.72 1673.65 1878.17 1672.07 1876.94 1670.49 1875.71 1668.6 1874.99 1666.42 1874.77ZM1664.55 1854.15 1670.96 1854.15 1667.15 1871.53C1672.6 1871.94 1676.76 1873.53 1679.61 1876.31 1682.46 1879.1 1683.88 1882.87 1683.88 1887.62 1683.88 1891.21 1683.25 1894.48 1681.98 1897.41 1680.71 1900.34 1678.84 1902.91 1676.39 1905.11 1673.93 1907.31 1671.3 1908.93 1668.5 1909.97 1665.71 1911.01 1662.3 1911.53 1658.27 1911.53L1654.58 1928.39 1648.18 1928.39 1651.87 1911.53C1646.52 1911.13 1642.4 1909.53 1639.53 1906.73 1636.65 1903.93 1635.21 1900.14 1635.21 1895.36 1635.21 1891.28 1636.27 1887.43 1638.39 1883.79 1640.51 1880.16 1643.46 1877.23 1647.23 1875 1651 1872.77 1655.51 1871.61 1660.78 1871.53Z" fill="#00B0F0" fill-rule="evenodd"/><text fill="#000000" fill-opacity="0" font-family="Arial,Arial_MSFontService,sans-serif" font-size="74.2461" x="1635.21" y="1919.11">𝜙</text><path d="M1694.78 1897.9C1696.22 1897.9 1697.34 1898.37 1698.13 1899.32 1698.92 1900.27 1699.32 1901.51 1699.32 1903.05 1699.32 1903.44 1699.28 1903.85 1699.22 1904.28 1699.15 1904.71 1699.02 1905.12 1698.85 1905.51L1699.26 1905.66C1701.15 1903.06 1703.02 1901.12 1704.87 1899.83 1706.72 1898.54 1708.62 1897.9 1710.6 1897.9 1712.67 1897.9 1714.22 1898.45 1715.24 1899.57 1716.27 1900.68 1716.78 1902.24 1716.78 1904.25 1716.78 1904.86 1716.69 1905.7 1716.52 1906.77 1716.34 1907.85 1716.11 1909.02 1715.84 1910.29 1715.57 1911.56 1715.27 1912.86 1714.96 1914.2 1714.65 1915.54 1714.36 1916.77 1714.08 1917.91 1713.81 1919.04 1713.59 1920.01 1713.41 1920.81 1713.23 1921.61 1713.15 1922.11 1713.15 1922.3 1713.15 1923.04 1713.28 1923.58 1713.56 1923.91 1713.83 1924.24 1714.27 1924.41 1714.87 1924.41 1715.25 1924.41 1715.61 1924.34 1715.97 1924.21 1716.33 1924.07 1716.71 1923.85 1717.1 1923.56 1717.49 1923.27 1717.92 1922.89 1718.39 1922.43 1718.86 1921.97 1719.39 1921.42 1719.97 1920.78L1721.99 1922.71C1721.04 1923.69 1720.16 1924.53 1719.36 1925.23 1718.56 1925.93 1717.78 1926.52 1717.03 1926.97 1716.28 1927.43 1715.53 1927.77 1714.79 1928 1714.04 1928.22 1713.25 1928.34 1712.41 1928.34 1711.71 1928.34 1711.06 1928.2 1710.47 1927.93 1709.87 1927.65 1709.36 1927.28 1708.93 1926.8 1708.5 1926.32 1708.17 1925.75 1707.93 1925.1 1707.7 1924.44 1707.58 1923.73 1707.58 1922.95 1707.58 1922.16 1707.66 1921.25 1707.83 1920.21 1707.99 1919.16 1708.24 1918.01 1708.58 1916.76 1708.93 1915.49 1709.25 1914.28 1709.56 1913.12 1709.86 1911.95 1710.12 1910.88 1710.35 1909.89 1710.57 1908.91 1710.75 1908.03 1710.88 1907.26 1711 1906.49 1711.07 1905.85 1711.07 1905.34 1711.07 1904.13 1710.84 1903.24 1710.38 1902.67 1709.92 1902.11 1709.18 1901.82 1708.17 1901.82 1707.58 1901.82 1706.95 1901.97 1706.28 1902.28 1705.6 1902.58 1704.92 1903 1704.24 1903.54 1703.56 1904.07 1702.89 1904.71 1702.23 1905.44 1701.58 1906.17 1700.98 1906.95 1700.43 1907.78 1699.88 1908.61 1699.4 1909.48 1698.98 1910.39 1698.56 1911.3 1698.25 1912.2 1698.06 1913.1L1694.78 1927.81 1689.03 1927.81 1693.43 1908.71C1693.68 1907.69 1693.87 1906.78 1693.99 1905.98 1694.1 1905.18 1694.16 1904.53 1694.16 1904.02 1694.16 1902.59 1693.59 1901.88 1692.43 1901.88 1692.08 1901.88 1691.72 1901.95 1691.36 1902.1 1691 1902.25 1690.62 1902.47 1690.22 1902.76 1689.82 1903.05 1689.39 1903.42 1688.92 1903.87 1688.45 1904.32 1687.92 1904.85 1687.34 1905.46L1685.31 1903.55C1686.29 1902.56 1687.18 1901.7 1687.99 1900.99 1688.81 1900.27 1689.58 1899.69 1690.31 1899.23 1691.04 1898.77 1691.77 1898.43 1692.49 1898.22 1693.21 1898 1693.98 1897.9 1694.78 1897.9Z" fill="#00B0F0" fill-rule="evenodd"/><text fill="#000000" fill-opacity="0" font-family="Arial,Arial_MSFontService,sans-serif" font-size="30.4395" x="1685.31" y="1924.53">𝑛</text><path d="M1677.55 1968.1C1679.5 1968.1 1680.9 1968.61 1681.77 1969.62 1682.63 1970.63 1683.06 1971.99 1683.06 1973.69 1683.06 1974.99 1682.83 1976.48 1682.38 1978.15 1681.92 1979.83 1681.27 1981.6 1680.43 1983.46 1679.59 1985.33 1678.59 1987.24 1677.43 1989.2 1676.27 1991.15 1674.99 1993.06 1673.58 1994.91 1672.18 1996.76 1670.68 1998.5 1669.08 2000.14 1667.49 2001.77 1665.83 2003.2 1664.12 2004.41 1662.4 2005.63 1660.66 2006.6 1658.89 2007.31 1657.12 2008.03 1655.36 2008.39 1653.6 2008.39 1652.82 2008.39 1652.16 2008.19 1651.64 2007.8 1651.11 2007.41 1650.68 2006.85 1650.36 2006.14 1650.03 2005.42 1649.8 2004.58 1649.67 2003.6 1649.53 2002.63 1649.47 2001.56 1649.47 2000.4 1649.47 1998.86 1649.56 1997.21 1649.75 1995.46 1649.94 1993.7 1650.18 1991.93 1650.48 1990.15L1652.18 1978.92C1652.29 1978.27 1652.38 1977.66 1652.45 1977.08 1652.51 1976.5 1652.55 1976.07 1652.55 1975.8 1652.55 1974.96 1652.41 1974.27 1652.14 1973.73 1651.87 1973.19 1651.41 1972.92 1650.76 1972.92 1650.25 1972.92 1649.7 1973.08 1649.1 1973.39 1648.51 1973.7 1647.91 1974.1 1647.3 1974.59 1646.69 1975.07 1646.1 1975.59 1645.54 1976.15 1644.97 1976.7 1644.44 1977.22 1643.96 1977.71L1642.01 1975.44C1642.85 1974.57 1643.74 1973.71 1644.68 1972.86 1645.63 1972.01 1646.63 1971.24 1647.68 1970.55 1648.74 1969.86 1649.85 1969.31 1651.01 1968.89 1652.17 1968.47 1653.36 1968.26 1654.57 1968.26 1655.6 1968.26 1656.44 1968.43 1657.09 1968.77 1657.73 1969.11 1658.24 1969.55 1658.61 1970.11 1658.97 1970.66 1659.22 1971.27 1659.36 1971.93 1659.49 1972.59 1659.56 1973.25 1659.56 1973.9 1659.56 1974.27 1659.54 1974.64 1659.52 1974.99 1659.49 1975.34 1659.45 1975.67 1659.4 1975.96L1657.13 1990.63C1656.88 1992.17 1656.68 1993.68 1656.52 1995.15 1656.36 1996.63 1656.28 1997.93 1656.28 1999.06 1656.28 2000.2 1656.34 2001.12 1656.48 2001.82 1656.61 2002.52 1656.87 2002.87 1657.25 2002.87 1658.14 2002.87 1659.26 2002.52 1660.61 2001.8 1661.96 2001.08 1663.38 2000.1 1664.87 1998.84 1666.35 1997.58 1667.84 1996.1 1669.33 1994.38 1670.81 1992.67 1672.15 1990.81 1673.34 1988.81 1674.53 1986.81 1675.49 1984.7 1676.24 1982.49 1676.98 1980.27 1677.35 1978.04 1677.35 1975.8 1677.35 1974.83 1677.14 1974.08 1676.72 1973.55 1676.3 1973.03 1675.65 1972.76 1674.76 1972.76 1673.62 1972.76 1672.57 1973.2 1671.62 1974.08 1670.66 1974.96 1669.66 1976.11 1668.64 1977.54L1666.33 1975.48C1666.97 1974.5 1667.74 1973.57 1668.62 1972.68 1669.49 1971.79 1670.43 1971.01 1671.41 1970.33 1672.4 1969.65 1673.42 1969.11 1674.47 1968.71 1675.53 1968.3 1676.55 1968.1 1677.55 1968.1Z" fill="#00B0F0" fill-rule="evenodd"/><text fill="#000000" fill-opacity="0" font-family="Arial,Arial_MSFontService,sans-serif" font-size="40.2842" x="1642.01" y="2003.35">𝑣</text><path d="M1700.93 1986.81 1702.72 1986.81C1702.68 1987.88 1702.65 1988.84 1702.63 1989.69 1702.61 1990.54 1702.6 1991.37 1702.59 1992.17 1702.58 1992.97 1702.57 1993.76 1702.57 1994.54L1702.57 2016.81C1702.57 2017.41 1702.59 2017.93 1702.63 2018.37 1702.67 2018.81 1702.73 2019.18 1702.82 2019.49 1702.91 2019.79 1703.03 2020.05 1703.17 2020.26 1703.32 2020.48 1703.49 2020.66 1703.69 2020.82 1703.92 2021.05 1704.23 2021.23 1704.62 2021.36 1705.01 2021.49 1705.51 2021.6 1706.12 2021.68 1706.72 2021.77 1707.45 2021.84 1708.3 2021.89 1709.15 2021.94 1710.17 2021.97 1711.36 2021.99L1711.36 2024.54 1688.13 2024.54 1688.13 2021.99C1689.28 2021.95 1690.26 2021.91 1691.06 2021.86 1691.86 2021.81 1692.54 2021.74 1693.11 2021.65 1693.68 2021.57 1694.13 2021.47 1694.47 2021.36 1694.81 2021.25 1695.11 2021.12 1695.37 2020.97 1695.64 2020.79 1695.87 2020.6 1696.07 2020.39 1696.26 2020.19 1696.42 2019.93 1696.54 2019.62 1696.65 2019.31 1696.75 2018.92 1696.82 2018.48 1696.88 2018.03 1696.92 2017.47 1696.92 2016.81L1696.92 1995.8C1696.92 1995.04 1696.77 1994.5 1696.48 1994.19 1696.19 1993.88 1695.77 1993.72 1695.22 1993.72 1694.61 1993.72 1693.72 1994.03 1692.52 1994.66 1691.33 1995.28 1689.79 1996.21 1687.89 1997.44 1687.64 1996.99 1687.41 1996.54 1687.19 1996.09 1686.98 1995.64 1686.75 1995.18 1686.52 1994.72 1688.94 1993.39 1691.34 1992.06 1693.71 1990.75 1696.08 1989.43 1698.49 1988.11 1700.93 1986.81Z" fill="#00B0F0" fill-rule="evenodd"/><text fill="#000000" fill-opacity="0" font-family="Arial,Arial_MSFontService,sans-serif" font-size="37.7344" x="1686.52" y="2019.82">1</text><path d="M1679.35 2094.62C1680.76 2094.62 1681.93 2095.11 1682.88 2096.1 1683.83 2097.09 1684.3 2098.34 1684.3 2099.85 1684.3 2101.36 1683.83 2102.61 1682.88 2103.6 1681.93 2104.58 1680.76 2105.08 1679.35 2105.08 1677.95 2105.08 1676.77 2104.58 1675.83 2103.6 1674.88 2102.61 1674.41 2101.36 1674.41 2099.85 1674.41 2098.34 1674.88 2097.09 1675.83 2096.1 1676.77 2095.11 1677.95 2094.62 1679.35 2094.62ZM1679.35 2073.06C1680.76 2073.06 1681.93 2073.55 1682.88 2074.54 1683.83 2075.52 1684.3 2076.77 1684.3 2078.29 1684.3 2079.8 1683.83 2081.05 1682.88 2082.04 1681.93 2083.02 1680.76 2083.52 1679.35 2083.52 1677.95 2083.52 1676.77 2083.02 1675.83 2082.04 1674.88 2081.05 1674.41 2079.8 1674.41 2078.29 1674.41 2076.77 1674.88 2075.52 1675.83 2074.54 1676.77 2073.55 1677.95 2073.06 1679.35 2073.06ZM1679.35 2051.5C1680.76 2051.5 1681.93 2051.99 1682.88 2052.98 1683.83 2053.96 1684.3 2055.21 1684.3 2056.73 1684.3 2058.24 1683.83 2059.49 1682.88 2060.48 1681.93 2061.46 1680.76 2061.96 1679.35 2061.96 1677.95 2061.96 1676.77 2061.46 1675.83 2060.48 1674.88 2059.49 1674.41 2058.24 1674.41 2056.73 1674.41 2055.21 1674.88 2053.96 1675.83 2052.98 1676.77 2051.99 1677.95 2051.5 1679.35 2051.5Z" fill="#00B0F0" fill-rule="evenodd"/><text fill="#000000" fill-opacity="0" font-family="Arial,Arial_MSFontService,sans-serif" font-size="53.5771" x="1674.41" y="2098.38">⋮</text><path d="M1676.11 2161.56C1678.05 2161.56 1679.46 2162.07 1680.32 2163.08 1681.19 2164.1 1681.62 2165.45 1681.62 2167.16 1681.62 2168.45 1681.39 2169.94 1680.93 2171.61 1680.47 2173.29 1679.82 2175.06 1678.99 2176.92 1678.15 2178.79 1677.15 2180.7 1675.99 2182.66 1674.83 2184.62 1673.54 2186.52 1672.14 2188.37 1670.73 2190.22 1669.23 2191.97 1667.64 2193.6 1666.04 2195.24 1664.39 2196.66 1662.67 2197.88 1660.96 2199.09 1659.22 2200.06 1657.45 2200.77 1655.68 2201.49 1653.91 2201.85 1652.16 2201.85 1651.37 2201.85 1650.72 2201.65 1650.19 2201.26 1649.66 2200.87 1649.24 2200.31 1648.91 2199.6 1648.59 2198.88 1648.36 2198.04 1648.23 2197.07 1648.09 2196.09 1648.02 2195.03 1648.02 2193.86 1648.02 2192.32 1648.12 2190.68 1648.31 2188.92 1648.5 2187.16 1648.74 2185.39 1649.04 2183.61L1650.74 2172.38C1650.85 2171.74 1650.93 2171.12 1651 2170.54 1651.07 2169.96 1651.1 2169.53 1651.1 2169.26 1651.1 2168.43 1650.97 2167.74 1650.7 2167.2 1650.43 2166.66 1649.97 2166.39 1649.32 2166.39 1648.81 2166.39 1648.25 2166.54 1647.66 2166.85 1647.06 2167.16 1646.46 2167.56 1645.86 2168.05 1645.25 2168.53 1644.66 2169.05 1644.09 2169.61 1643.52 2170.16 1643 2170.68 1642.51 2171.17L1640.57 2168.9C1641.4 2168.03 1642.3 2167.18 1643.24 2166.33 1644.19 2165.47 1645.19 2164.7 1646.24 2164.02 1647.29 2163.33 1648.4 2162.77 1649.56 2162.35 1650.73 2161.94 1651.91 2161.73 1653.13 2161.73 1654.16 2161.73 1654.99 2161.89 1655.64 2162.23 1656.29 2162.57 1656.8 2163.02 1657.16 2163.57 1657.53 2164.12 1657.78 2164.73 1657.91 2165.39 1658.05 2166.06 1658.11 2166.71 1658.11 2167.36 1658.11 2167.74 1658.1 2168.1 1658.07 2168.45 1658.05 2168.8 1658.01 2169.13 1657.95 2169.43L1655.68 2184.1C1655.44 2185.64 1655.24 2187.14 1655.08 2188.62 1654.91 2190.09 1654.83 2191.39 1654.83 2192.53 1654.83 2193.66 1654.9 2194.58 1655.03 2195.28 1655.17 2195.98 1655.43 2196.34 1655.8 2196.34 1656.7 2196.34 1657.82 2195.98 1659.17 2195.26 1660.52 2194.55 1661.94 2193.56 1663.42 2192.3 1664.91 2191.05 1666.4 2189.56 1667.88 2187.85 1669.37 2186.13 1670.71 2184.27 1671.89 2182.27 1673.08 2180.27 1674.05 2178.17 1674.79 2175.95 1675.53 2173.74 1675.91 2171.51 1675.91 2169.26 1675.91 2168.29 1675.7 2167.54 1675.28 2167.01 1674.86 2166.49 1674.2 2166.22 1673.31 2166.22 1672.18 2166.22 1671.13 2166.66 1670.17 2167.54 1669.21 2168.42 1668.22 2169.57 1667.19 2171.01L1664.88 2168.94C1665.53 2167.97 1666.29 2167.03 1667.17 2166.14 1668.05 2165.25 1668.98 2164.47 1669.97 2163.79 1670.96 2163.12 1671.97 2162.58 1673.03 2162.17 1674.08 2161.77 1675.11 2161.56 1676.11 2161.56Z" fill="#00B0F0" fill-rule="evenodd"/><text fill="#000000" fill-opacity="0" font-family="Arial,Arial_MSFontService,sans-serif" font-size="40.2842" x="1640.57" y="2196.81">𝑣</text><path d="M1688.25 2188.09C1689.69 2188.09 1690.81 2188.56 1691.6 2189.51 1692.39 2190.46 1692.79 2191.7 1692.79 2193.25 1692.79 2193.64 1692.75 2194.05 1692.68 2194.48 1692.62 2194.91 1692.49 2195.32 1692.32 2195.71L1692.73 2195.85C1694.62 2193.26 1696.49 2191.31 1698.34 2190.02 1700.18 2188.74 1702.09 2188.09 1704.07 2188.09 1706.14 2188.09 1707.68 2188.65 1708.71 2189.76 1709.73 2190.87 1710.25 2192.44 1710.25 2194.45 1710.25 2195.05 1710.16 2195.89 1709.98 2196.97 1709.81 2198.04 1709.58 2199.21 1709.31 2200.48 1709.04 2201.75 1708.74 2203.06 1708.43 2204.39 1708.12 2205.73 1707.83 2206.97 1707.55 2208.1 1707.28 2209.23 1707.05 2210.2 1706.88 2211 1706.7 2211.8 1706.61 2212.3 1706.61 2212.49 1706.61 2213.24 1706.75 2213.77 1707.02 2214.11 1707.3 2214.44 1707.74 2214.6 1708.34 2214.6 1708.71 2214.6 1709.08 2214.54 1709.44 2214.4 1709.8 2214.26 1710.18 2214.05 1710.57 2213.75 1710.96 2213.46 1711.39 2213.09 1711.86 2212.63 1712.33 2212.17 1712.85 2211.62 1713.44 2210.97L1715.46 2212.91C1714.51 2213.88 1713.63 2214.72 1712.83 2215.42 1712.02 2216.13 1711.25 2216.71 1710.5 2217.17 1709.74 2217.63 1709 2217.97 1708.26 2218.19 1707.51 2218.42 1706.72 2218.53 1705.88 2218.53 1705.18 2218.53 1704.53 2218.39 1703.93 2218.12 1703.34 2217.85 1702.83 2217.47 1702.4 2216.99 1701.97 2216.51 1701.63 2215.95 1701.4 2215.29 1701.17 2214.64 1701.05 2213.92 1701.05 2213.14 1701.05 2212.36 1701.13 2211.45 1701.3 2210.4 1701.46 2209.36 1701.71 2208.21 1702.04 2206.96 1702.4 2205.69 1702.72 2204.47 1703.03 2203.31 1703.33 2202.15 1703.59 2201.07 1703.82 2200.09 1704.04 2199.1 1704.22 2198.22 1704.34 2197.45 1704.47 2196.68 1704.53 2196.04 1704.53 2195.53 1704.53 2194.32 1704.31 2193.43 1703.85 2192.87 1703.39 2192.3 1702.65 2192.02 1701.63 2192.02 1701.05 2192.02 1700.42 2192.17 1699.74 2192.47 1699.07 2192.77 1698.39 2193.19 1697.71 2193.73 1697.02 2194.27 1696.36 2194.9 1695.7 2195.63 1695.05 2196.37 1694.45 2197.15 1693.9 2197.98 1693.35 2198.81 1692.87 2199.68 1692.45 2200.59 1692.03 2201.49 1691.72 2202.4 1691.53 2203.3L1688.25 2218 1682.5 2218 1686.9 2198.9C1687.15 2197.89 1687.34 2196.98 1687.45 2196.18 1687.57 2195.38 1687.63 2194.72 1687.63 2194.21 1687.63 2192.79 1687.05 2192.07 1685.9 2192.07 1685.55 2192.07 1685.19 2192.15 1684.83 2192.29 1684.47 2192.44 1684.09 2192.66 1683.69 2192.95 1683.29 2193.25 1682.85 2193.62 1682.39 2194.07 1681.92 2194.52 1681.39 2195.04 1680.8 2195.65L1678.78 2193.74C1679.76 2192.75 1680.65 2191.89 1681.46 2191.18 1682.27 2190.47 1683.05 2189.88 1683.78 2189.42 1684.51 2188.96 1685.24 2188.63 1685.96 2188.41 1686.68 2188.2 1687.44 2188.09 1688.25 2188.09Z" fill="#00B0F0" fill-rule="evenodd"/><text fill="#000000" fill-opacity="0" font-family="Arial,Arial_MSFontService,sans-serif" font-size="30.4395" x="1678.78" y="2214.73">𝑛</text><text fill="#FFFFFF" font-family="Arial,Arial_MSFontService,sans-serif" font-weight="400" font-size="83" transform="matrix(1 0 0 1 1835.91 1964)">=  </text><path d="M2158.76 1613.41C2173.6 1632.7 2185.46 1658.3 2194.37 1690.21 2203.27 1722.11 2207.73 1756.4 2207.76 1793.06L2207.76 1796.54 2207.76 1805.18 2207.76 1889.05 2207.76 1897.86 2207.76 1981.59 2207.76 1990.37 2207.76 2073.73 2207.76 2082.91 2207.76 2085.85C2207.73 2122.51 2203.27 2156.8 2194.37 2188.71 2185.46 2220.62 2173.6 2246.22 2158.76 2265.51L2155.6 2262.87C2169.54 2243.15 2180.26 2217.44 2187.76 2185.75 2195.26 2154.06 2199.03 2120.77 2199.09 2085.89L2199.09 2082.91 2199.09 2073.73 2199.09 1990.37 2199.09 1981.59 2199.09 1897.86 2199.09 1889.05 2199.09 1805.18 2199.09 1796.54 2199.09 1793.02C2199.03 1758.14 2195.26 1724.86 2187.76 1693.16 2180.26 1661.47 2169.54 1635.76 2155.6 1616.04ZM1988.43 1613.38 1991.59 1616.02C1977.65 1635.74 1966.93 1661.45 1959.44 1693.14 1951.94 1724.83 1948.16 1758.12 1948.11 1793L1948.11 1796.52 1948.11 1805.16 1948.11 1889.03 1948.11 1897.83 1948.11 1981.57 1948.11 1990.35 1948.11 2073.75 1948.11 2082.89 1948.11 2085.91C1948.16 2120.79 1951.94 2154.08 1959.44 2185.77 1966.93 2217.46 1977.65 2243.17 1991.59 2262.89L1988.43 2265.53C1973.6 2246.24 1961.73 2220.64 1952.83 2188.73 1943.93 2156.82 1939.46 2122.53 1939.44 2085.87L1939.44 2082.89 1939.44 2073.75 1939.44 1990.35 1939.44 1981.57 1939.44 1897.83 1939.44 1889.03 1939.44 1805.16 1939.44 1796.52 1939.44 1793.04C1939.46 1756.38 1943.93 1722.09 1952.83 1690.18 1961.73 1658.27 1973.6 1632.67 1988.43 1613.38Z" fill="#FFFFFF" fill-rule="evenodd"/><path d="M2073.46 1604.78C2071.6 1604.78 2070.04 1605.33 2068.78 1606.44 2067.52 1607.55 2066.51 1609.14 2065.74 1611.22 2064.97 1613.3 2064.42 1615.83 2064.1 1618.82 2063.77 1621.81 2063.61 1625.18 2063.61 1628.93 2063.61 1637.74 2064.43 1644.2 2066.06 1648.32 2067.7 1652.44 2070.23 1654.5 2073.66 1654.5 2076.93 1654.5 2079.36 1652.57 2080.94 1648.69 2082.52 1644.81 2083.31 1638.81 2083.31 1630.67 2083.31 1624.46 2082.9 1619.43 2082.09 1615.58 2081.28 1611.73 2080.15 1608.96 2078.71 1607.29 2077.26 1605.61 2075.51 1604.78 2073.46 1604.78ZM2073.66 1601.33C2079.58 1601.33 2083.98 1603.62 2086.88 1608.18 2089.77 1612.75 2091.21 1619.65 2091.21 1628.89 2091.21 1638.46 2089.66 1645.69 2086.57 1650.59 2083.48 1655.5 2078.96 1657.95 2073.01 1657.95 2067.18 1657.95 2062.84 1655.65 2059.99 1651.06 2057.13 1646.47 2055.71 1639.5 2055.71 1630.15 2055.71 1625.18 2056.15 1620.88 2057.03 1617.26 2057.9 1613.64 2059.13 1610.65 2060.71 1608.28 2062.3 1605.92 2064.19 1604.17 2066.41 1603.03 2068.62 1601.9 2071.04 1601.33 2073.66 1601.33Z" fill="#DC0059" fill-rule="evenodd"/><text fill="#000000" fill-opacity="0" font-family="Arial,Arial_MSFontService,sans-serif" font-size="56.6167" x="2055.71" y="1650.87">0</text><path d="M2044.5 1707.85C2042.83 1707.85 2041.07 1707.89 2039.23 1707.97L2033.72 1732.53 2037.94 1732.53C2041.21 1732.53 2043.85 1732.19 2045.86 1731.52 2047.87 1730.84 2049.52 1729.79 2050.81 1728.37 2052.09 1726.96 2053.08 1725.27 2053.78 1723.33 2054.49 1721.38 2054.84 1719.25 2054.84 1716.93 2054.84 1713.79 2054.04 1711.49 2052.45 1710.04 2050.85 1708.58 2048.2 1707.85 2044.5 1707.85ZM2027.52 1704.28 2045.39 1704.28C2048.61 1704.28 2051.25 1704.53 2053.32 1705.03 2055.38 1705.53 2057.09 1706.3 2058.42 1707.34 2059.76 1708.38 2060.76 1709.7 2061.42 1711.29 2062.09 1712.89 2062.42 1714.74 2062.42 1716.84 2062.42 1720.9 2061.46 1724.41 2059.54 1727.38 2057.62 1730.35 2055.02 1732.54 2051.74 1733.95 2048.45 1735.35 2044.52 1736.05 2039.92 1736.05 2037.17 1736.05 2034.87 1736 2033.03 1735.89L2030.44 1747.81C2030.2 1748.91 2030.03 1749.77 2029.93 1750.36 2029.84 1750.95 2029.76 1751.6 2029.69 1752.29 2029.62 1752.97 2029.59 1753.59 2029.59 1754.13 2029.59 1754.97 2029.72 1755.62 2029.99 1756.09 2030.26 1756.57 2030.67 1756.91 2031.21 1757.13 2031.75 1757.34 2032.68 1757.51 2034.01 1757.61L2033.56 1759.6 2016.9 1759.6 2017.35 1757.61C2018.38 1757.45 2019.15 1757.19 2019.66 1756.82 2020.17 1756.46 2020.61 1755.95 2020.96 1755.3 2021.31 1754.66 2021.63 1753.87 2021.93 1752.93 2022.23 1752 2022.67 1750.2 2023.27 1747.52L2030.16 1716.32C2030.75 1713.62 2031.05 1711.48 2031.05 1709.91 2031.05 1708.59 2030.74 1707.67 2030.12 1707.16 2029.49 1706.64 2028.48 1706.35 2027.08 1706.27Z" fill="#DC0059" fill-rule="evenodd"/><text fill="#000000" fill-opacity="0" font-family="Arial,Arial_MSFontService,sans-serif" font-size="55.3198" x="2016.9" y="1752.69">𝑃</text><path d="M2070.78 1750.4 2072.21 1750.4 2067.88 1769.91C2067.6 1771.06 2067.41 1771.98 2067.31 1772.67 2067.2 1773.35 2067.14 1773.96 2067.14 1774.51 2067.14 1775.25 2067.3 1775.79 2067.6 1776.12 2067.9 1776.45 2068.36 1776.62 2068.96 1776.62 2069.31 1776.62 2069.66 1776.55 2070.02 1776.42 2070.37 1776.28 2070.74 1776.06 2071.14 1775.77 2071.54 1775.48 2071.98 1775.1 2072.46 1774.64 2072.94 1774.18 2073.47 1773.63 2074.06 1772.99L2076.05 1774.92C2075.04 1775.96 2074.11 1776.83 2073.28 1777.54 2072.45 1778.26 2071.67 1778.84 2070.92 1779.29 2070.18 1779.74 2069.45 1780.06 2068.74 1780.25 2068.03 1780.45 2067.27 1780.55 2066.47 1780.55 2065.73 1780.55 2065.06 1780.41 2064.46 1780.14 2063.87 1779.86 2063.36 1779.49 2062.93 1779.01 2062.5 1778.53 2062.16 1777.96 2061.93 1777.29 2061.7 1776.63 2061.58 1775.9 2061.58 1775.1 2061.58 1774.45 2061.66 1773.65 2061.81 1772.7 2061.97 1771.74 2062.17 1770.7 2062.41 1769.57 2062.66 1768.45 2062.93 1767.28 2063.22 1766.04 2063.51 1764.81 2063.8 1763.59 2064.08 1762.38 2064.37 1761.17 2064.62 1760 2064.84 1758.88 2065.07 1757.76 2065.23 1756.74 2065.33 1755.82 2065.37 1755.66 2065.39 1755.51 2065.39 1755.37 2065.39 1755.22 2065.39 1755.09 2065.39 1754.97 2065.35 1754.21 2065.08 1753.65 2064.58 1753.3 2064.08 1752.95 2063.2 1752.75 2061.93 1752.71L2062.28 1750.72ZM2069.08 1738.59 2074.94 1738.59 2073.5 1744.89 2067.7 1744.89Z" fill="#DC0059" fill-rule="evenodd"/><text fill="#000000" fill-opacity="0" font-family="Arial,Arial_MSFontService,sans-serif" font-size="41.9531" x="2061.58" y="1775.3">𝑖</text><path d="M2081.66 1696.2 2083.1 1696.2 2078.76 1715.71C2078.49 1716.87 2078.3 1717.78 2078.19 1718.47 2078.08 1719.15 2078.03 1719.77 2078.03 1720.31 2078.03 1721.06 2078.18 1721.59 2078.48 1721.92 2078.79 1722.26 2079.24 1722.42 2079.85 1722.42 2080.2 1722.42 2080.55 1722.35 2080.9 1722.22 2081.25 1722.08 2081.63 1721.87 2082.03 1721.57 2082.43 1721.28 2082.87 1720.9 2083.35 1720.45 2083.83 1719.99 2084.36 1719.43 2084.94 1718.79L2086.94 1720.72C2085.92 1721.76 2085 1722.63 2084.17 1723.35 2083.34 1724.06 2082.55 1724.64 2081.81 1725.09 2081.07 1725.54 2080.34 1725.86 2079.63 1726.06 2078.91 1726.25 2078.16 1726.35 2077.36 1726.35 2076.61 1726.35 2075.94 1726.21 2075.35 1725.94 2074.75 1725.67 2074.24 1725.29 2073.81 1724.81 2073.38 1724.33 2073.05 1723.76 2072.81 1723.1 2072.58 1722.43 2072.46 1721.7 2072.46 1720.9 2072.46 1720.26 2072.54 1719.45 2072.7 1718.5 2072.85 1717.54 2073.05 1716.5 2073.3 1715.38 2073.54 1714.25 2073.81 1713.08 2074.1 1711.85 2074.4 1710.62 2074.69 1709.4 2074.97 1708.18 2075.25 1706.97 2075.51 1705.81 2075.73 1704.68 2075.95 1703.56 2076.12 1702.54 2076.21 1701.62 2076.25 1701.47 2076.27 1701.31 2076.27 1701.17 2076.27 1701.02 2076.27 1700.89 2076.27 1700.77 2076.23 1700.01 2075.96 1699.45 2075.47 1699.1 2074.97 1698.75 2074.08 1698.56 2072.81 1698.52L2073.17 1696.52ZM2099.26 1695.91C2100.71 1695.91 2101.83 1696.38 2102.62 1697.33 2103.41 1698.28 2103.81 1699.52 2103.81 1701.07 2103.81 1701.46 2103.77 1701.87 2103.7 1702.3 2103.63 1702.73 2103.51 1703.14 2103.34 1703.53L2103.75 1703.67C2105.64 1701.08 2107.51 1699.13 2109.36 1697.84 2111.2 1696.55 2113.11 1695.91 2115.08 1695.91 2117.15 1695.91 2118.7 1696.47 2119.73 1697.58 2120.75 1698.69 2121.27 1700.26 2121.27 1702.27 2121.27 1702.87 2121.18 1703.71 2121 1704.79 2120.83 1705.86 2120.6 1707.03 2120.33 1708.3 2120.06 1709.57 2119.76 1710.88 2119.45 1712.21 2119.14 1713.55 2118.84 1714.79 2118.57 1715.92 2118.3 1717.05 2118.07 1718.02 2117.9 1718.82 2117.72 1719.62 2117.63 1720.12 2117.63 1720.31 2117.63 1721.06 2117.77 1721.59 2118.04 1721.92 2118.32 1722.26 2118.76 1722.42 2119.36 1722.42 2119.73 1722.42 2120.1 1722.35 2120.46 1722.22 2120.82 1722.08 2121.2 1721.87 2121.59 1721.57 2121.98 1721.28 2122.41 1720.9 2122.88 1720.45 2123.35 1719.99 2123.87 1719.43 2124.46 1718.79L2126.48 1720.72C2125.52 1721.7 2124.65 1722.54 2123.84 1723.24 2123.04 1723.95 2122.27 1724.53 2121.52 1724.99 2120.76 1725.45 2120.02 1725.79 2119.27 1726.01 2118.53 1726.24 2117.74 1726.35 2116.9 1726.35 2116.2 1726.35 2115.55 1726.21 2114.95 1725.94 2114.36 1725.67 2113.84 1725.29 2113.41 1724.81 2112.98 1724.33 2112.65 1723.77 2112.42 1723.11 2112.18 1722.46 2112.07 1721.74 2112.07 1720.96 2112.07 1720.18 2112.15 1719.26 2112.32 1718.22 2112.48 1717.17 2112.73 1716.03 2113.06 1714.78 2113.41 1713.51 2113.74 1712.29 2114.04 1711.13 2114.35 1709.97 2114.61 1708.89 2114.84 1707.91 2115.06 1706.92 2115.24 1706.04 2115.36 1705.27 2115.49 1704.5 2115.55 1703.86 2115.55 1703.35 2115.55 1702.14 2115.32 1701.25 2114.86 1700.68 2114.41 1700.12 2113.67 1699.84 2112.65 1699.84 2112.07 1699.84 2111.44 1699.99 2110.76 1700.29 2110.09 1700.59 2109.41 1701.01 2108.73 1701.55 2108.04 1702.09 2107.37 1702.72 2106.72 1703.45 2106.07 1704.19 2105.47 1704.97 2104.92 1705.8 2104.37 1706.63 2103.89 1707.5 2103.47 1708.4 2103.05 1709.31 2102.74 1710.22 2102.55 1711.11L2099.26 1725.82 2093.52 1725.82 2097.92 1706.72C2098.17 1705.7 2098.36 1704.8 2098.47 1704 2098.59 1703.19 2098.65 1702.54 2098.65 1702.03 2098.65 1700.61 2098.07 1699.89 2096.92 1699.89 2096.57 1699.89 2096.21 1699.97 2095.85 1700.11 2095.49 1700.26 2095.11 1700.48 2094.71 1700.77 2094.31 1701.07 2093.87 1701.44 2093.4 1701.89 2092.94 1702.34 2092.41 1702.86 2091.82 1703.47L2089.8 1701.56C2090.78 1700.57 2091.67 1699.71 2092.48 1699 2093.29 1698.29 2094.06 1697.7 2094.8 1697.24 2095.53 1696.78 2096.26 1696.45 2096.98 1696.23 2097.7 1696.02 2098.46 1695.91 2099.26 1695.91ZM2079.96 1684.4 2085.82 1684.4 2084.39 1690.69 2078.59 1690.69Z" fill="#DC0059" fill-rule="evenodd"/><text fill="#000000" fill-opacity="0" font-family="Arial,Arial_MSFontService,sans-serif" font-size="41.9531" x="2072.46" y="1721.1">𝑖𝑛</text><path d="M2073.41 1849.69C2074.81 1849.69 2075.99 1850.18 2076.93 1851.17 2077.88 1852.15 2078.35 1853.4 2078.35 1854.91 2078.35 1856.43 2077.88 1857.68 2076.93 1858.66 2075.99 1859.65 2074.81 1860.14 2073.41 1860.14 2072 1860.14 2070.83 1859.65 2069.88 1858.66 2068.94 1857.68 2068.46 1856.43 2068.46 1854.91 2068.46 1853.4 2068.94 1852.15 2069.88 1851.17 2070.83 1850.18 2072 1849.69 2073.41 1849.69ZM2073.41 1828.13C2074.81 1828.13 2075.99 1828.62 2076.93 1829.61 2077.88 1830.59 2078.35 1831.84 2078.35 1833.35 2078.35 1834.87 2077.88 1836.12 2076.93 1837.1 2075.99 1838.09 2074.81 1838.58 2073.41 1838.58 2072 1838.58 2070.83 1838.09 2069.88 1837.1 2068.94 1836.12 2068.46 1834.87 2068.46 1833.35 2068.46 1831.84 2068.94 1830.59 2069.88 1829.61 2070.83 1828.62 2072 1828.13 2073.41 1828.13ZM2073.41 1806.57C2074.81 1806.57 2075.99 1807.06 2076.93 1808.04 2077.88 1809.03 2078.35 1810.28 2078.35 1811.79 2078.35 1813.31 2077.88 1814.56 2076.93 1815.54 2075.99 1816.53 2074.81 1817.02 2073.41 1817.02 2072 1817.02 2070.83 1816.53 2069.88 1815.54 2068.94 1814.56 2068.46 1813.31 2068.46 1811.79 2068.46 1810.28 2068.94 1809.03 2069.88 1808.04 2070.83 1807.06 2072 1806.57 2073.41 1806.57Z" fill="#DC0059" fill-rule="evenodd"/><text fill="#000000" fill-opacity="0" font-family="Arial,Arial_MSFontService,sans-serif" font-size="53.5771" x="2068.46" y="1853.45">⋮</text><path d="M2046.04 1909.39C2043.12 1909.39 2040.4 1910.43 2037.87 1912.51 2035.35 1914.59 2033.13 1917.57 2031.23 1921.43 2029.32 1925.29 2027.84 1929.53 2026.79 1934.15 2025.74 1938.77 2025.21 1942.85 2025.21 1946.39 2025.21 1954.74 2028.25 1958.92 2034.33 1958.92 2038.08 1958.92 2041.53 1957.17 2044.66 1953.67 2047.8 1950.17 2050.32 1945.33 2052.24 1939.14 2054.16 1932.95 2055.12 1927.17 2055.12 1921.79 2055.12 1917.77 2054.38 1914.69 2052.89 1912.57 2051.4 1910.45 2049.12 1909.39 2046.04 1909.39ZM2046.49 1905.83C2051.7 1905.83 2055.72 1907.34 2058.54 1910.37 2061.37 1913.39 2062.78 1917.77 2062.78 1923.5 2062.78 1927.28 2062.18 1931.51 2060.99 1936.18 2059.81 1940.86 2058.17 1944.98 2056.09 1948.56 2054.01 1952.14 2051.6 1955.03 2048.86 1957.21 2046.11 1959.4 2043.14 1960.92 2039.92 1961.75 2040.54 1963.73 2041.12 1965.35 2041.66 1966.64 2042.2 1967.92 2042.72 1968.96 2043.22 1969.76 2043.72 1970.55 2044.22 1971.15 2044.7 1971.54 2045.19 1971.93 2045.68 1972.2 2046.16 1972.33 2046.65 1972.47 2047.22 1972.53 2047.86 1972.53 2048.89 1972.53 2049.93 1972.24 2050.98 1971.64 2052.04 1971.05 2053.21 1970.02 2054.51 1968.56L2056.62 1970.83C2054.46 1973.18 2052.44 1974.84 2050.58 1975.82 2048.72 1976.79 2046.8 1977.28 2044.82 1977.28 2042.58 1977.28 2040.75 1976.78 2039.33 1975.78 2037.91 1974.78 2036.69 1973.18 2035.65 1970.99 2034.6 1968.81 2033.6 1965.94 2032.63 1962.4 2027.74 1962.13 2024.01 1960.51 2021.44 1957.54 2018.87 1954.57 2017.59 1950.38 2017.59 1944.98 2017.59 1940.92 2018.27 1936.34 2019.64 1931.24 2021 1926.13 2022.97 1921.62 2025.55 1917.72 2028.13 1913.82 2031.21 1910.86 2034.79 1908.85 2038.37 1906.83 2042.27 1905.83 2046.49 1905.83Z" fill="#DC0059" fill-rule="evenodd"/><text fill="#000000" fill-opacity="0" font-family="Arial,Arial_MSFontService,sans-serif" font-size="71.4497" x="2017.59" y="1968.34">𝑄</text><path d="M2079.14 1952.59 2080.58 1952.59 2076.24 1972.11C2075.97 1973.26 2075.78 1974.18 2075.67 1974.86 2075.56 1975.54 2075.51 1976.16 2075.51 1976.71 2075.51 1977.45 2075.66 1977.98 2075.96 1978.32 2076.27 1978.65 2076.72 1978.81 2077.33 1978.81 2077.68 1978.81 2078.03 1978.75 2078.38 1978.61 2078.73 1978.47 2079.11 1978.26 2079.51 1977.96 2079.91 1977.67 2080.35 1977.3 2080.83 1976.84 2081.3 1976.38 2081.84 1975.83 2082.42 1975.18L2084.42 1977.12C2083.4 1978.15 2082.48 1979.02 2081.65 1979.74 2080.82 1980.45 2080.03 1981.03 2079.29 1981.48 2078.55 1981.93 2077.82 1982.25 2077.11 1982.45 2076.39 1982.64 2075.64 1982.74 2074.84 1982.74 2074.09 1982.74 2073.42 1982.6 2072.83 1982.33 2072.23 1982.06 2071.72 1981.68 2071.29 1981.2 2070.86 1980.72 2070.53 1980.15 2070.29 1979.49 2070.06 1978.82 2069.94 1978.09 2069.94 1977.29 2069.94 1976.65 2070.02 1975.85 2070.18 1974.89 2070.33 1973.93 2070.53 1972.89 2070.78 1971.77 2071.02 1970.65 2071.29 1969.47 2071.58 1968.24 2071.88 1967.01 2072.16 1965.79 2072.45 1964.58 2072.73 1963.37 2072.98 1962.2 2073.21 1961.08 2073.43 1959.95 2073.59 1958.93 2073.69 1958.01 2073.73 1957.86 2073.75 1957.71 2073.75 1957.56 2073.75 1957.41 2073.75 1957.28 2073.75 1957.16 2073.71 1956.4 2073.44 1955.85 2072.95 1955.49 2072.45 1955.14 2071.56 1954.95 2070.29 1954.91L2070.65 1952.92ZM2077.44 1940.79 2083.3 1940.79 2081.87 1947.09 2076.07 1947.09Z" fill="#DC0059" fill-rule="evenodd"/><text fill="#000000" fill-opacity="0" font-family="Arial,Arial_MSFontService,sans-serif" font-size="41.9531" x="2069.94" y="1977.5">𝑖</text><path d="M2084.16 1898.4 2085.6 1898.4 2081.26 1917.91C2080.99 1919.06 2080.8 1919.98 2080.69 1920.66 2080.58 1921.35 2080.53 1921.96 2080.53 1922.51 2080.53 1923.25 2080.68 1923.79 2080.98 1924.12 2081.28 1924.45 2081.74 1924.62 2082.34 1924.62 2082.7 1924.62 2083.05 1924.55 2083.4 1924.41 2083.75 1924.27 2084.13 1924.06 2084.53 1923.77 2084.93 1923.47 2085.37 1923.1 2085.85 1922.64 2086.32 1922.18 2086.86 1921.63 2087.44 1920.98L2089.43 1922.92C2088.42 1923.95 2087.5 1924.83 2086.67 1925.54 2085.84 1926.25 2085.05 1926.83 2084.31 1927.28 2083.56 1927.73 2082.84 1928.05 2082.12 1928.25 2081.41 1928.44 2080.65 1928.54 2079.85 1928.54 2079.11 1928.54 2078.44 1928.41 2077.85 1928.13 2077.25 1927.86 2076.74 1927.48 2076.31 1927 2075.88 1926.53 2075.55 1925.95 2075.31 1925.29 2075.08 1924.63 2074.96 1923.89 2074.96 1923.09 2074.96 1922.45 2075.04 1921.65 2075.2 1920.69 2075.35 1919.73 2075.55 1918.69 2075.8 1917.57 2076.04 1916.45 2076.31 1915.27 2076.6 1914.04 2076.9 1912.81 2077.18 1911.59 2077.47 1910.38 2077.75 1909.17 2078 1908 2078.23 1906.88 2078.45 1905.75 2078.61 1904.73 2078.71 1903.82 2078.75 1903.66 2078.77 1903.51 2078.77 1903.36 2078.77 1903.22 2078.77 1903.08 2078.77 1902.97 2078.73 1902.2 2078.46 1901.65 2077.96 1901.3 2077.47 1900.94 2076.58 1900.75 2075.31 1900.71L2075.66 1898.72ZM2101.76 1898.1C2103.21 1898.1 2104.33 1898.58 2105.12 1899.52 2105.91 1900.47 2106.3 1901.72 2106.3 1903.26 2106.3 1903.65 2106.27 1904.06 2106.2 1904.49 2106.13 1904.92 2106.01 1905.33 2105.83 1905.72L2106.24 1905.87C2108.14 1903.27 2110.01 1901.33 2111.85 1900.04 2113.7 1898.75 2115.61 1898.1 2117.58 1898.1 2119.65 1898.1 2121.2 1898.66 2122.23 1899.77 2123.25 1900.89 2123.76 1902.45 2123.76 1904.46 2123.76 1905.07 2123.68 1905.91 2123.5 1906.98 2123.32 1908.05 2123.1 1909.23 2122.83 1910.5 2122.55 1911.77 2122.26 1913.07 2121.95 1914.41 2121.64 1915.74 2121.34 1916.98 2121.07 1918.11 2120.8 1919.25 2120.57 1920.21 2120.4 1921.01 2120.22 1921.81 2120.13 1922.31 2120.13 1922.51 2120.13 1923.25 2120.27 1923.79 2120.54 1924.12 2120.81 1924.45 2121.25 1924.62 2121.86 1924.62 2122.23 1924.62 2122.6 1924.55 2122.96 1924.41 2123.32 1924.27 2123.7 1924.06 2124.09 1923.77 2124.48 1923.47 2124.91 1923.1 2125.38 1922.64 2125.84 1922.18 2126.37 1921.63 2126.96 1920.98L2128.98 1922.92C2128.02 1923.89 2127.14 1924.73 2126.34 1925.44 2125.54 1926.14 2124.77 1926.72 2124.01 1927.18 2123.26 1927.64 2122.51 1927.98 2121.77 1928.21 2121.03 1928.43 2120.24 1928.54 2119.4 1928.54 2118.7 1928.54 2118.05 1928.41 2117.45 1928.13 2116.85 1927.86 2116.34 1927.48 2115.91 1927 2115.48 1926.53 2115.15 1925.96 2114.92 1925.31 2114.68 1924.65 2114.56 1923.93 2114.56 1923.15 2114.56 1922.37 2114.65 1921.46 2114.81 1920.41 2114.98 1919.37 2115.23 1918.22 2115.56 1916.97 2115.91 1915.7 2116.24 1914.48 2116.54 1913.32 2116.85 1912.16 2117.11 1911.09 2117.33 1910.1 2117.56 1909.11 2117.73 1908.23 2117.86 1907.46 2117.99 1906.69 2118.05 1906.05 2118.05 1905.54 2118.05 1904.33 2117.82 1903.44 2117.36 1902.88 2116.9 1902.31 2116.17 1902.03 2115.15 1902.03 2114.56 1902.03 2113.94 1902.18 2113.26 1902.48 2112.59 1902.79 2111.91 1903.21 2111.23 1903.74 2110.54 1904.28 2109.87 1904.91 2109.22 1905.65 2108.56 1906.38 2107.96 1907.16 2107.42 1907.99 2106.87 1908.82 2106.39 1909.69 2105.97 1910.6 2105.55 1911.51 2105.24 1912.41 2105.04 1913.31L2101.76 1928.02 2096.02 1928.02 2100.41 1908.91C2100.67 1907.9 2100.85 1906.99 2100.97 1906.19 2101.09 1905.39 2101.15 1904.73 2101.15 1904.23 2101.15 1902.8 2100.57 1902.09 2099.42 1902.09 2099.07 1902.09 2098.71 1902.16 2098.35 1902.31 2097.99 1902.45 2097.61 1902.67 2097.21 1902.97 2096.81 1903.26 2096.37 1903.63 2095.9 1904.08 2095.43 1904.53 2094.91 1905.06 2094.32 1905.66L2092.3 1903.76C2093.28 1902.76 2094.17 1901.91 2094.98 1901.19 2095.79 1900.48 2096.56 1899.9 2097.29 1899.44 2098.03 1898.98 2098.75 1898.64 2099.48 1898.43 2100.2 1898.21 2100.96 1898.1 2101.76 1898.1ZM2082.46 1886.59 2088.32 1886.59 2086.89 1892.89 2081.08 1892.89Z" fill="#DC0059" fill-rule="evenodd"/><text fill="#000000" fill-opacity="0" font-family="Arial,Arial_MSFontService,sans-serif" font-size="41.9531" x="2074.96" y="1923.3">𝑖𝑛</text><path d="M2073.41 2051.88C2074.81 2051.88 2075.99 2052.37 2076.93 2053.36 2077.88 2054.35 2078.35 2055.6 2078.35 2057.11 2078.35 2058.62 2077.88 2059.87 2076.93 2060.86 2075.99 2061.84 2074.81 2062.34 2073.41 2062.34 2072 2062.34 2070.83 2061.84 2069.88 2060.86 2068.94 2059.87 2068.46 2058.62 2068.46 2057.11 2068.46 2055.6 2068.94 2054.35 2069.88 2053.36 2070.83 2052.37 2072 2051.88 2073.41 2051.88ZM2073.41 2030.32C2074.81 2030.32 2075.99 2030.81 2076.93 2031.8 2077.88 2032.79 2078.35 2034.03 2078.35 2035.55 2078.35 2037.06 2077.88 2038.31 2076.93 2039.3 2075.99 2040.28 2074.81 2040.78 2073.41 2040.78 2072 2040.78 2070.83 2040.28 2069.88 2039.3 2068.94 2038.31 2068.46 2037.06 2068.46 2035.55 2068.46 2034.03 2068.94 2032.79 2069.88 2031.8 2070.83 2030.81 2072 2030.32 2073.41 2030.32ZM2073.41 2008.76C2074.81 2008.76 2075.99 2009.25 2076.93 2010.24 2077.88 2011.22 2078.35 2012.47 2078.35 2013.99 2078.35 2015.5 2077.88 2016.75 2076.93 2017.74 2075.99 2018.72 2074.81 2019.22 2073.41 2019.22 2072 2019.22 2070.83 2018.72 2069.88 2017.74 2068.94 2016.75 2068.46 2015.5 2068.46 2013.99 2068.46 2012.47 2068.94 2011.22 2069.88 2010.24 2070.83 2009.25 2072 2008.76 2073.41 2008.76Z" fill="#DC0059" fill-rule="evenodd"/><text fill="#000000" fill-opacity="0" font-family="Arial,Arial_MSFontService,sans-serif" font-size="53.5771" x="2068.46" y="2055.64">⋮</text><path d="M1996.73 2116.96 2013.51 2116.96 2013.06 2118.95C2011.87 2119.08 2010.95 2119.44 2010.29 2120 2009.62 2120.57 2009.16 2121.36 2008.89 2122.37 2008.62 2123.39 2008.48 2124.75 2008.48 2126.45 2008.48 2126.85 2008.52 2128.07 2008.6 2130.09L2009.74 2159.76 2009.74 2163 2010.14 2163 2027.69 2131.35C2028.72 2129.49 2029.49 2127.89 2030 2126.55 2030.52 2125.21 2030.77 2124.03 2030.77 2123 2030.77 2120.73 2029.42 2119.38 2026.72 2118.95L2027.17 2116.96 2043.74 2116.96 2043.3 2118.95C2042.57 2119.06 2041.87 2119.33 2041.21 2119.78 2040.55 2120.23 2039.8 2120.97 2038.98 2122.01 2038.16 2123.05 2036.88 2125.06 2035.15 2128.03L2009.21 2172.93 2003.82 2172.93 2001.11 2127.74C2001 2125.99 2000.8 2124.48 2000.52 2123.23 2000.24 2121.97 1999.79 2120.99 1999.18 2120.29 1998.57 2119.58 1997.61 2119.14 1996.28 2118.95Z" fill="#DC0059" fill-rule="evenodd"/><text fill="#000000" fill-opacity="0" font-family="Arial,Arial_MSFontService,sans-serif" font-size="55.9683" x="1996.28" y="2165.94">𝑉</text><path d="M2047.1 2168.68 2048.54 2168.68 2044.2 2188.19C2043.93 2189.34 2043.74 2190.26 2043.63 2190.94 2043.53 2191.62 2043.47 2192.24 2043.47 2192.79 2043.47 2193.53 2043.62 2194.07 2043.93 2194.4 2044.23 2194.73 2044.68 2194.9 2045.29 2194.9 2045.64 2194.9 2045.99 2194.83 2046.34 2194.69 2046.69 2194.55 2047.07 2194.34 2047.47 2194.05 2047.87 2193.75 2048.31 2193.38 2048.79 2192.92 2049.27 2192.46 2049.8 2191.91 2050.39 2191.26L2052.38 2193.2C2051.36 2194.23 2050.44 2195.11 2049.61 2195.82 2048.78 2196.53 2047.99 2197.11 2047.25 2197.56 2046.51 2198.01 2045.78 2198.33 2045.07 2198.53 2044.36 2198.72 2043.6 2198.82 2042.8 2198.82 2042.06 2198.82 2041.39 2198.69 2040.79 2198.41 2040.2 2198.14 2039.68 2197.76 2039.25 2197.28 2038.82 2196.81 2038.49 2196.23 2038.26 2195.57 2038.02 2194.91 2037.91 2194.17 2037.91 2193.37 2037.91 2192.73 2037.98 2191.93 2038.14 2190.97 2038.3 2190.01 2038.5 2188.97 2038.74 2187.85 2038.98 2186.73 2039.25 2185.55 2039.55 2184.32 2039.84 2183.09 2040.13 2181.87 2040.41 2180.66 2040.69 2179.45 2040.95 2178.28 2041.17 2177.16 2041.4 2176.03 2041.56 2175.01 2041.66 2174.1 2041.69 2173.94 2041.71 2173.79 2041.71 2173.64 2041.71 2173.49 2041.71 2173.36 2041.71 2173.25 2041.67 2172.48 2041.41 2171.93 2040.91 2171.58 2040.41 2171.22 2039.53 2171.03 2038.26 2170.99L2038.61 2169ZM2045.41 2156.87 2051.26 2156.87 2049.83 2163.17 2044.03 2163.17Z" fill="#DC0059" fill-rule="evenodd"/><text fill="#000000" fill-opacity="0" font-family="Arial,Arial_MSFontService,sans-serif" font-size="41.9531" x="2037.91" y="2193.58">𝑖</text><path d="M2101.39 2102.74C2100.32 2102.74 2099.26 2103 2098.21 2103.53 2097.17 2104.06 2096.18 2104.8 2095.26 2105.77 2094.33 2106.74 2093.48 2107.91 2092.72 2109.29 2091.96 2110.66 2091.32 2112.2 2090.82 2113.9 2093.3 2113.88 2095.43 2113.69 2097.22 2113.31 2099.01 2112.94 2100.47 2112.44 2101.61 2111.79 2102.76 2111.15 2103.59 2110.39 2104.13 2109.51 2104.67 2108.63 2104.94 2107.66 2104.94 2106.61 2104.94 2105.4 2104.64 2104.45 2104.03 2103.76 2103.42 2103.08 2102.55 2102.74 2101.39 2102.74ZM2102.65 2099.84C2105.15 2099.84 2107.05 2100.39 2108.35 2101.48 2109.65 2102.57 2110.3 2104.13 2110.3 2106.14 2110.3 2113.21 2103.61 2116.74 2090.23 2116.74 2090.13 2117.25 2090.05 2117.8 2090 2118.4 2089.94 2118.99 2089.91 2119.64 2089.91 2120.35 2089.91 2122.48 2090.34 2124.03 2091.21 2125 2092.08 2125.98 2093.43 2126.47 2095.27 2126.47 2096.23 2126.47 2097.14 2126.37 2097.99 2126.16 2098.85 2125.96 2099.7 2125.64 2100.53 2125.21 2101.36 2124.78 2102.19 2124.23 2103.03 2123.55 2103.87 2122.88 2104.75 2122.07 2105.67 2121.14L2107.87 2123.51C2105.6 2125.76 2103.34 2127.45 2101.09 2128.58 2098.83 2129.71 2096.4 2130.28 2093.8 2130.28 2092.28 2130.28 2090.93 2130.05 2089.75 2129.59 2088.57 2129.13 2087.57 2128.46 2086.76 2127.58 2085.95 2126.7 2085.33 2125.63 2084.91 2124.37 2084.49 2123.11 2084.28 2121.69 2084.28 2120.11 2084.28 2119 2084.38 2117.84 2084.58 2116.64 2084.77 2115.44 2085.07 2114.24 2085.48 2113.04 2085.89 2111.84 2086.4 2110.66 2087.01 2109.52 2087.61 2108.38 2088.33 2107.31 2089.15 2106.31 2090.79 2104.28 2092.76 2102.69 2095.08 2101.55 2097.39 2100.41 2099.92 2099.84 2102.65 2099.84ZM2059.2 2099.84C2060.64 2099.84 2061.76 2100.31 2062.55 2101.26 2063.34 2102.21 2063.74 2103.45 2063.74 2104.99 2063.74 2105.87 2063.6 2106.65 2063.33 2107.34L2063.74 2107.51C2065.71 2104.88 2067.63 2102.94 2069.5 2101.7 2071.36 2100.46 2073.28 2099.84 2075.25 2099.84 2075.99 2099.84 2076.69 2099.88 2077.35 2099.96 2078 2100.03 2078.63 2100.13 2079.24 2100.25L2077.74 2107.34 2074.34 2107.34C2074.25 2106.17 2074 2105.33 2073.6 2104.82 2073.2 2104.31 2072.62 2104.06 2071.85 2104.06 2071.4 2104.04 2070.89 2104.17 2070.3 2104.47 2069.72 2104.76 2069.09 2105.18 2068.44 2105.73 2067.79 2106.27 2067.14 2106.92 2066.49 2107.66 2065.85 2108.4 2065.24 2109.21 2064.66 2110.09 2064.09 2110.97 2063.58 2111.9 2063.15 2112.89 2062.72 2113.88 2062.4 2114.87 2062.19 2115.86L2059.2 2129.75 2053.46 2129.75 2057.85 2110.65C2058.12 2109.52 2058.31 2108.58 2058.42 2107.84 2058.53 2107.09 2058.58 2106.47 2058.58 2105.96 2058.58 2104.54 2058.01 2103.82 2056.85 2103.82 2056.48 2103.82 2056.12 2103.9 2055.76 2104.04 2055.39 2104.19 2055.02 2104.41 2054.63 2104.7 2054.24 2104.99 2053.81 2105.37 2053.34 2105.81 2052.87 2106.26 2052.34 2106.79 2051.76 2107.4L2049.73 2105.49C2050.71 2104.5 2051.6 2103.64 2052.42 2102.93 2053.23 2102.22 2054 2101.63 2054.74 2101.17 2055.49 2100.71 2056.22 2100.38 2056.94 2100.16 2057.66 2099.95 2058.42 2099.84 2059.2 2099.84ZM2143.04 2088.79C2144.11 2088.79 2145.06 2088.85 2145.88 2088.95 2146.7 2089.06 2147.49 2089.19 2148.25 2089.35L2147.05 2094.8 2144.15 2094.8C2144.01 2093.69 2143.68 2092.87 2143.15 2092.35 2142.63 2091.84 2141.92 2091.58 2141.04 2091.58 2140.03 2091.58 2139.17 2091.8 2138.48 2092.24 2137.79 2092.68 2137.18 2093.34 2136.66 2094.23 2136.15 2095.12 2135.7 2096.16 2135.33 2097.35 2134.96 2098.54 2134.71 2099.57 2134.57 2100.45L2142.68 2100.45 2142.04 2103.71 2133.89 2103.71 2128.59 2128.81C2127.67 2133.09 2126.18 2136.26 2124.12 2138.32 2122.06 2140.38 2119.31 2141.41 2115.88 2141.41 2114.98 2141.41 2114.32 2141.35 2113.91 2141.23 2114.03 2140.75 2114.14 2140.24 2114.24 2139.73 2114.33 2139.21 2114.45 2138.71 2114.59 2138.22 2114.71 2138.26 2114.87 2138.28 2115.09 2138.28 2115.3 2138.28 2115.6 2138.28 2115.99 2138.28 2116.76 2138.28 2117.45 2138.15 2118.09 2137.91 2118.72 2137.67 2119.3 2137.23 2119.83 2136.59 2120.36 2135.96 2120.84 2135.09 2121.28 2133.98 2121.72 2132.88 2122.14 2131.46 2122.53 2129.72L2128.39 2103.71 2123.35 2103.71 2123.88 2101.45C2124.95 2101.39 2125.8 2101.32 2126.44 2101.24 2127.07 2101.17 2127.61 2101 2128.05 2100.73 2128.49 2100.47 2128.82 2100.02 2129.03 2099.4 2130.16 2095.82 2131.87 2093.16 2134.14 2091.42 2136.42 2089.67 2139.38 2088.79 2143.04 2088.79Z" fill="#DC0059" fill-rule="evenodd"/><text fill="#000000" fill-opacity="0" font-family="Arial,Arial_MSFontService,sans-serif" font-size="52.6172" x="2049.73" y="2134.83">𝑟𝑒𝑓</text><path d="M2073.41 2267.96C2074.81 2267.96 2075.99 2268.45 2076.93 2269.44 2077.88 2270.43 2078.35 2271.68 2078.35 2273.19 2078.35 2274.7 2077.88 2275.95 2076.93 2276.94 2075.99 2277.92 2074.81 2278.42 2073.41 2278.42 2072 2278.42 2070.83 2277.92 2069.88 2276.94 2068.94 2275.95 2068.46 2274.7 2068.46 2273.19 2068.46 2271.68 2068.94 2270.43 2069.88 2269.44 2070.83 2268.45 2072 2267.96 2073.41 2267.96ZM2073.41 2246.4C2074.81 2246.4 2075.99 2246.89 2076.93 2247.88 2077.88 2248.87 2078.35 2250.12 2078.35 2251.63 2078.35 2253.14 2077.88 2254.39 2076.93 2255.38 2075.99 2256.36 2074.81 2256.86 2073.41 2256.86 2072 2256.86 2070.83 2256.36 2069.88 2255.38 2068.94 2254.39 2068.46 2253.14 2068.46 2251.63 2068.46 2250.12 2068.94 2248.87 2069.88 2247.88 2070.83 2246.89 2072 2246.4 2073.41 2246.4ZM2073.41 2224.84C2074.81 2224.84 2075.99 2225.33 2076.93 2226.32 2077.88 2227.31 2078.35 2228.56 2078.35 2230.07 2078.35 2231.58 2077.88 2232.83 2076.93 2233.82 2075.99 2234.8 2074.81 2235.3 2073.41 2235.3 2072 2235.3 2070.83 2234.8 2069.88 2233.82 2068.94 2232.83 2068.46 2231.58 2068.46 2230.07 2068.46 2228.56 2068.94 2227.31 2069.88 2226.32 2070.83 2225.33 2072 2224.84 2073.41 2224.84Z" fill="#DC0059" fill-rule="evenodd"/><text fill="#000000" fill-opacity="0" font-family="Arial,Arial_MSFontService,sans-serif" font-size="53.5771" x="2068.46" y="2271.72">⋮</text><path d="M1410.5 1922.5C1392 1922.5 1377 1920 1377 1916.92L1377 1807.58C1377 1804.5 1362 1802 1343.5 1802 1362 1802 1377 1799.5 1377 1796.42L1377 1687.08C1377 1684 1392 1681.5 1410.5 1681.5" stroke="#00B0F0" stroke-width="3.4375" stroke-linejoin="round" stroke-miterlimit="10" fill="none" fill-rule="evenodd"/><text fill="#00B0F0" font-family="Arial,Arial_MSFontService,sans-serif" font-style="italic" font-weight="400" font-size="73" transform="matrix(1 0 0 1 610.384 1828)">n variables (angles)</text><path d="M1410.5 2210.5C1392 2210.5 1377 2208 1377 2204.92L1377 2096.08C1377 2093 1362 2090.5 1343.5 2090.5 1362 2090.5 1377 2088 1377 2084.92L1377 1976.08C1377 1973 1392 1970.5 1410.5 1970.5" stroke="#00B0F0" stroke-width="3.4375" stroke-linejoin="round" stroke-miterlimit="10" fill="none" fill-rule="evenodd"/><text fill="#00B0F0" font-family="Arial,Arial_MSFontService,sans-serif" font-style="italic" font-weight="400" font-size="73" transform="matrix(1 0 0 1 516.1 2108)">n variables (magnitudes)</text><path d="M38.9998 76C28.2303 76 19.4999 74.545 19.4999 72.7501L19.5 41.2498C19.5 39.455 10.7695 38 3.62844e-15 38 10.7695 38 19.5 36.545 19.5 34.7501L19.5 3.24986C19.5 1.45501 28.2304 0 38.9999-1.20948e-15" stroke="#DC0059" stroke-width="3.4375" stroke-linejoin="round" stroke-miterlimit="10" fill="none" fill-rule="evenodd" transform="matrix(-1 0 0 1 2323.5 1601.5)"/><text fill="#DC0059" font-family="Arial,Arial_MSFontService,sans-serif" font-style="italic" font-weight="400" font-size="64" transform="matrix(1 0 0 1 2351.36 1665)">1 equation (reference </text><path d="M2998.64 1636.82C2994.95 1637 2991.76 1638.6 2989.06 1641.6 2986.36 1644.6 2985.01 1648.3 2985.01 1652.69 2985.01 1655.4 2985.73 1657.67 2987.17 1659.5 2988.6 1661.34 2990.53 1662.37 2992.95 1662.6ZM3003.57 1636.75 2997.89 1662.57C3000.43 1662.46 3002.74 1661.7 3004.82 1660.28 3006.91 1658.87 3008.54 1656.95 3009.73 1654.53 3010.92 1652.12 3011.51 1649.49 3011.51 1646.66 3011.51 1644.99 3011.22 1643.44 3010.64 1642 3010.05 1640.57 3009.15 1639.37 3007.93 1638.43 3006.71 1637.48 3005.26 1636.92 3003.57 1636.75ZM3002.14 1620.85 3007.07 1620.85 3004.14 1634.25C3008.34 1634.57 3011.55 1635.8 3013.74 1637.94 3015.94 1640.09 3017.04 1642.99 3017.04 1646.66 3017.04 1649.43 3016.55 1651.95 3015.57 1654.21 3014.59 1656.47 3013.16 1658.45 3011.26 1660.14 3009.36 1661.84 3007.34 1663.09 3005.18 1663.89 3003.03 1664.7 3000.4 1665.1 2997.29 1665.1L2994.45 1678.1 2989.51 1678.1 2992.35 1665.1C2988.23 1664.78 2985.06 1663.55 2982.84 1661.39 2980.62 1659.24 2979.51 1656.32 2979.51 1652.63 2979.51 1649.48 2980.33 1646.51 2981.96 1643.71 2983.6 1640.9 2985.87 1638.64 2988.78 1636.93 2991.68 1635.21 2995.17 1634.32 2999.23 1634.25Z" fill="#DC0059" fill-rule="evenodd"/><text fill="#000000" fill-opacity="0" font-family="Arial,Arial_MSFontService,sans-serif" font-size="57.25" x="2979.51" y="1670.94">𝜙</text><text fill="#DC0059" font-family="Arial,Arial_MSFontService,sans-serif" font-style="italic" font-weight="400" font-size="64" transform="matrix(1 0 0 1 3021.91 1665)">=0)</text><path d="M38.9998 180C28.2303 180 19.4998 178.545 19.4998 176.75L19.5 93.2499C19.5 91.455 10.7696 90.0001 4.29683e-15 90.0001 10.7696 90.0001 19.5 88.5451 19.5 86.7503L19.5 3.24981C19.5 1.45499 28.2305 -7.16138e-16 39-1.43228e-15" stroke="#DC0059" stroke-width="3.4375" stroke-linejoin="round" stroke-miterlimit="10" fill="none" fill-rule="evenodd" transform="matrix(-1 0 0 1 2326.5 1696.5)"/><path d="M38.0002 385C27.5067 385 19.0001 383.582 19.0001 381.833L19.0001 195.667C19.0001 193.918 10.4935 192.5 3.06351e-15 192.5 10.4935 192.5 19.0001 191.082 19.0001 189.333L19.0001 3.16665C19.0001 1.41776 27.5067 -3.82935e-16 38.0002-1.53174e-15" stroke="#DC0059" stroke-width="3.4375" stroke-linejoin="round" stroke-miterlimit="10" fill="none" fill-rule="evenodd" transform="matrix(-1 0 0 1 2327.5 1894.5)"/><text fill="#DC0059" font-family="Calibri,Calibri_MSFontService,sans-serif" font-style="italic" font-weight="400" font-size="73" transform="matrix(1 0 0 1 2351.36 1813)">n</text><text fill="#DC0059" font-family="Calibri,Calibri_MSFontService,sans-serif" font-style="italic" font-weight="400" font-size="73" transform="matrix(1 0 0 1 2389.18 1813)">-</text><text fill="#DC0059" font-family="Calibri,Calibri_MSFontService,sans-serif" font-style="italic" font-weight="400" font-size="73" transform="matrix(1 0 0 1 2411.52 1813)">1 active power equations (all buses except slack bus)</text><text fill="#DC0059" font-family="Calibri,Calibri_MSFontService,sans-serif" font-style="italic" font-weight="400" font-size="73" transform="matrix(1 0 0 1 2351.36 2098)">n equations (reactive power or voltage)</text><text fill="#FFFFFF" font-family="Arial,Arial_MSFontService,sans-serif" font-weight="700" font-size="83" transform="matrix(1 0 0 1 337.045 1537)">Nonlinear equation system with </text><text fill="#00B0F0" font-family="Arial,Arial_MSFontService,sans-serif" font-weight="700" font-size="83" transform="matrix(1 0 0 1 1602.04 1537)">2n</text><text fill="#FFFFFF" font-family="Arial,Arial_MSFontService,sans-serif" font-weight="700" font-size="83" transform="matrix(1 0 0 1 1721.21 1537)">variables and </text><text fill="#DC0059" font-family="Arial,Arial_MSFontService,sans-serif" font-weight="700" font-size="83" transform="matrix(1 0 0 1 2271.21 1537)">2n</text><text fill="#FFFFFF" font-family="Arial,Arial_MSFontService,sans-serif" font-weight="700" font-size="83" transform="matrix(1 0 0 1 2390.38 1537)">equations:</text></g></svg>