<svg width="4055" height="1802" xmlns="http://www.w3.org/2000/svg" xmlns:xlink="http://www.w3.org/1999/xlink" xml:space="preserve" overflow="hidden"><g transform="translate(-67 -429)"><text fill="#00A6D9" font-family="Arial,Arial_MSFontService,sans-serif" font-weight="400" font-size="73" transform="matrix(1 0 0 1 638.804 2069)">yes</text><path d="M0 3.4375-82.501 3.4375-79.0635 0-79.0635 2311.65-82.4935 2308.21 36.4049 2308.47 36.39 2315.34-85.9385 2315.08-85.9385-3.4375 0-3.4375ZM32.5968 2297.92 59.2777 2313.2 31.046 2325.38Z" fill="#4BB9AA" transform="matrix(-6.12323e-17 -1 -1 6.12323e-17 3503.7 1134.78)"/><text fill="#4BB9AA" font-family="Arial,Arial_MSFontService,sans-serif" font-weight="400" font-size="73" transform="matrix(1 0 0 1 1079.23 1050)">no</text><text fill="#D77864" font-family="Arial,Arial_MSFontService,sans-serif" font-weight="400" font-size="73" transform="matrix(1 0 0 1 1067.95 1605)">no</text><text fill="#4BB9AA" font-family="Arial,Arial_MSFontService,sans-serif" font-weight="400" font-size="73" transform="matrix(1 0 0 1 3910.63 1141)">yes</text><path d="M203 841.167C203 830.029 212.029 821 223.167 821L1013.83 821C1024.97 821 1034 830.029 1034 841.167L1034 921.833C1034 932.971 1024.97 942 1013.83 942L223.167 942C212.029 942 203 932.971 203 921.833Z" fill="#F2F2F2" fill-rule="evenodd"/><text fill="#191919" font-family="Arial,Arial_MSFontService,sans-serif" font-weight="400" font-size="55" transform="matrix(1 0 0 1 289.75 906)">Newton </text><text fill="#191919" font-family="Arial,Arial_MSFontService,sans-serif" font-weight="400" font-size="55" transform="matrix(1 0 0 1 490.844 906)">Raphson</text><text fill="#191919" font-family="Arial,Arial_MSFontService,sans-serif" font-weight="400" font-size="55" transform="matrix(1 0 0 1 725.167 906)">iterations</text><path d="M204 458.334C204 450.418 210.417 444 218.333 444L1019.67 444C1027.58 444 1034 450.418 1034 458.334L1034 515.666C1034 523.583 1027.58 530 1019.67 530L218.333 530C210.417 530 204 523.583 204 515.666Z" fill="#00B0F0" fill-rule="evenodd"/><text fill="#FFFFFF" font-family="Arial,Arial_MSFontService,sans-serif" font-weight="400" font-size="64" transform="matrix(1 0 0 1 427.194 511)">Input network</text><path d="M203 788.5C203 780.492 209.492 774 217.5 774L1019.5 774C1027.51 774 1034 780.492 1034 788.5L1034 846.5C1034 854.508 1027.51 861 1019.5 861L217.5 861C209.492 861 203 854.508 203 846.5Z" fill="#00B0F0" fill-rule="evenodd"/><text fill="#FFFFFF" font-family="Arial,Arial_MSFontService,sans-serif" font-weight="400" font-size="64" transform="matrix(1 0 0 1 397.745 841)">System Solving</text><path d="M203 2124.5C203 2116.49 209.492 2110 217.5 2110L1019.5 2110C1027.51 2110 1034 2116.49 1034 2124.5L1034 2182.5C1034 2190.51 1027.51 2197 1019.5 2197L217.5 2197C209.492 2197 203 2190.51 203 2182.5Z" fill="#00B0F0" fill-rule="evenodd"/><text fill="#FFFFFF" font-family="Arial,Arial_MSFontService,sans-serif" font-weight="400" font-size="64" transform="matrix(1 0 0 1 401.755 2177)">Output network</text><path d="M623.937 1695.5 623.938 1865.41 617.063 1865.41 617.062 1695.5ZM634.25 1860.83 620.5 1888.33 606.75 1860.83Z" fill="#00A6D9"/><path d="M67 1639.5 288 1584 951 1584 1172 1639.5 951 1695 288 1695Z" fill="#D9D9D9" fill-rule="evenodd"/><text fill="#191919" font-family="Arial,Arial_MSFontService,sans-serif" font-weight="700" font-size="46" transform="matrix(1 0 0 1 401.607 1657)">Q </text><text fill="#191919" font-family="Arial,Arial_MSFontService,sans-serif" font-weight="700" font-size="46" transform="matrix(1 0 0 1 449.732 1657)">limits</text><text fill="#191919" font-family="Arial,Arial_MSFontService,sans-serif" font-weight="700" font-size="46" transform="matrix(1 0 0 1 581.503 1657)">respected</text><text fill="#191919" font-family="Arial,Arial_MSFontService,sans-serif" font-weight="700" font-size="46" transform="matrix(1 0 0 1 809.523 1657)">?</text><text fill="#00A6D9" font-family="Arial,Arial_MSFontService,sans-serif" font-weight="400" font-size="73" transform="matrix(1 0 0 1 638.804 1772)">yes</text><path d="M1241 1594.17C1241 1581.92 1250.92 1572 1263.17 1572L2046.83 1572C2059.08 1572 2069 1581.92 2069 1594.17L2069 1682.83C2069 1695.08 2059.08 1705 2046.83 1705L1263.17 1705C1250.92 1705 1241 1695.08 1241 1682.83Z" fill="#F2F2F2" fill-rule="evenodd"/><text fill="#191919" font-family="Arial,Arial_MSFontService,sans-serif" font-weight="400" font-size="55" transform="matrix(1 0 0 1 1396.75 1669)">Switching</text><text fill="#191919" font-family="Arial,Arial_MSFontService,sans-serif" font-weight="400" font-size="55" transform="matrix(1 0 0 1 1646.54 1669)">PV &lt;</text><text fill="#191919" font-family="Arial,Arial_MSFontService,sans-serif" font-weight="400" font-size="55" transform="matrix(1 0 0 1 1767.43 1669)">-</text><text fill="#191919" font-family="Arial,Arial_MSFontService,sans-serif" font-weight="400" font-size="55" transform="matrix(1 0 0 1 1785.76 1669)">&gt; PQ</text><path d="M1241 1542.33C1241 1534.42 1247.42 1528 1255.33 1528L2054.67 1528C2062.58 1528 2069 1534.42 2069 1542.33L2069 1599.67C2069 1607.58 2062.58 1614 2054.67 1614L1255.33 1614C1247.42 1614 1241 1607.58 1241 1599.67Z" fill="#D77864" fill-rule="evenodd"/><text fill="#FFFFFF" font-family="Arial,Arial_MSFontService,sans-serif" font-weight="400" font-size="64" transform="matrix(1 0 0 1 1448.31 1595)">Reactive limits</text><path d="M87 1075 299.4 1018 936.6 1018 1149 1075 936.6 1132 299.4 1132Z" fill="#D9D9D9" fill-rule="evenodd"/><text fill="#191919" font-family="Arial,Arial_MSFontService,sans-serif" font-weight="400" font-size="50" transform="matrix(1 0 0 1 381.505 1094)">Slack </text><text fill="#191919" font-family="Arial,Arial_MSFontService,sans-serif" font-weight="400" font-size="50" transform="matrix(1 0 0 1 519.005 1094)">mismatch</text><text fill="#191919" font-family="Arial,Arial_MSFontService,sans-serif" font-weight="400" font-size="50" transform="matrix(1 0 0 1 748.172 1094)">&lt; </text><text fill="#191919" font-family="Arial,Arial_MSFontService,sans-serif" font-weight="400" font-size="50" transform="matrix(1 0 0 1 791.141 1094)">ε</text><text fill="#191919" font-family="Arial,Arial_MSFontService,sans-serif" font-weight="400" font-size="50" transform="matrix(1 0 0 1 827.235 1094)">?</text><text fill="#00A6D9" font-family="Arial,Arial_MSFontService,sans-serif" font-weight="400" font-size="73" transform="matrix(1 0 0 1 637.363 1186)">yes</text><path d="M1241 1023.67C1241 1010.04 1252.04 999 1265.67 999L2046.33 999C2059.96 999 2071 1010.04 2071 1023.67L2071 1122.33C2071 1135.96 2059.96 1147 2046.33 1147L1265.67 1147C1252.04 1147 1241 1135.96 1241 1122.33Z" fill="#F2F2F2" fill-rule="evenodd"/><text font-family="Arial,Arial_MSFontService,sans-serif" font-weight="400" font-size="55" transform="matrix(1 0 0 1 1293.19 1111)">Updating</text><text font-family="Arial,Arial_MSFontService,sans-serif" font-weight="400" font-size="55" transform="matrix(1 0 0 1 1527.51 1111)">active power </text><text font-family="Arial,Arial_MSFontService,sans-serif" font-weight="400" font-size="55" transform="matrix(1 0 0 1 1850.64 1111)">targets</text><path d="M1241 984.334C1241 976.417 1247.42 970 1255.33 970L2056.67 970C2064.58 970 2071 976.417 2071 984.334L2071 1041.67C2071 1049.58 2064.58 1056 2056.67 1056L1255.33 1056C1247.42 1056 1241 1049.58 1241 1041.67Z" fill="#4BB9AA" fill-rule="evenodd"/><text fill="#FFFFFF" font-family="Arial,Arial_MSFontService,sans-serif" font-weight="400" font-size="64" transform="matrix(1 0 0 1 1308.95 1036)">Active power distribution</text><path d="M3.43721-0.0443709 4.13855 54.2852-2.73587 54.3739-3.43721 0.0443709ZM14.391 49.5691 0.997146 77.2443-13.1067 49.9241Z" fill="#00A6D9" transform="matrix(-1 0 0 1 620.497 697.5)"/><path d="M621.937 1132.47 622.965 1273.01 616.09 1273.06 615.062 1132.53ZM633.243 1268.35 619.695 1295.95 605.744 1268.56Z" fill="#00A6D9"/><path d="M2125 1036.17C2125 1025.03 2134.03 1016 2145.17 1016L2934.83 1016C2945.97 1016 2955 1025.03 2955 1036.17L2955 1116.83C2955 1127.97 2945.97 1137 2934.83 1137L2145.17 1137C2134.03 1137 2125 1127.97 2125 1116.83Z" fill="#F2F2F2" fill-rule="evenodd"/><text fill="#191919" font-family="Arial,Arial_MSFontService,sans-serif" font-weight="400" font-size="55" transform="matrix(1 0 0 1 2211.14 1102)">Newton </text><text fill="#191919" font-family="Arial,Arial_MSFontService,sans-serif" font-weight="400" font-size="55" transform="matrix(1 0 0 1 2412.24 1102)">Raphson</text><text fill="#191919" font-family="Arial,Arial_MSFontService,sans-serif" font-weight="400" font-size="55" transform="matrix(1 0 0 1 2646.56 1102)">iterations</text><path d="M2125 984.501C2125 976.492 2131.49 970 2139.5 970L2940.5 970C2948.51 970 2955 976.492 2955 984.501L2955 1042.5C2955 1050.51 2948.51 1057 2940.5 1057L2139.5 1057C2131.49 1057 2125 1050.51 2125 1042.5Z" fill="#00B0F0" fill-rule="evenodd"/><text fill="#FFFFFF" font-family="Arial,Arial_MSFontService,sans-serif" font-weight="400" font-size="64" transform="matrix(1 0 0 1 2319.14 1037)">System Solving</text><path d="M0.0779574-3.43662 68.5184-1.88409 68.3625 4.98914-0.0779574 3.43662ZM64.1702-12.2979 91.3512 2.07224 63.5465 15.195Z" fill="#4BB9AA" transform="matrix(1 0 0 -1 1149.5 1075.57)"/><path d="M2069.5 1074.06 2102.39 1074.06 2102.39 1080.94 2069.5 1080.94ZM2097.8 1063.75 2125.3 1077.5 2097.8 1091.25Z" fill="#4BB9AA"/><path d="M3.43749-0.00885093 3.57625 53.8833-3.29873 53.901-3.43749 0.00885093ZM13.8769 49.2734 0.197769 76.8087-13.623 49.3442Z" fill="#00A6D9" transform="matrix(-1 0 0 1 618.698 942.5)"/><path d="M3040 1078 3225.4 1021 3781.6 1021 3967 1078 3781.6 1135 3225.4 1135Z" fill="#D9D9D9" fill-rule="evenodd"/><text fill="#191919" font-family="Arial,Arial_MSFontService,sans-serif" font-weight="400" font-size="50" transform="matrix(1 0 0 1 3266.57 1096)">Slack </text><text fill="#191919" font-family="Arial,Arial_MSFontService,sans-serif" font-weight="400" font-size="50" transform="matrix(1 0 0 1 3404.07 1096)">mismatch</text><text fill="#191919" font-family="Arial,Arial_MSFontService,sans-serif" font-weight="400" font-size="50" transform="matrix(1 0 0 1 3633.24 1096)">&lt; </text><text fill="#191919" font-family="Arial,Arial_MSFontService,sans-serif" font-weight="400" font-size="50" transform="matrix(1 0 0 1 3676.2 1096)">ε</text><text fill="#191919" font-family="Arial,Arial_MSFontService,sans-serif" font-weight="400" font-size="50" transform="matrix(1 0 0 1 3712.3 1096)">?</text><path d="M2955.53 1074.06 3017.26 1074.66 3017.19 1081.53 2955.47 1080.94ZM3012.78 1064.3 3040.14 1078.31 3012.51 1091.8Z" fill="#4BB9AA"/><text fill="#4BB9AA" font-family="Arial,Arial_MSFontService,sans-serif" font-weight="400" font-size="73" transform="matrix(1 0 0 1 3392.44 1191)">no</text><path d="M2125 1599.17C2125 1588.03 2134.03 1579 2145.17 1579L2934.83 1579C2945.97 1579 2955 1588.03 2955 1599.17L2955 1679.83C2955 1690.97 2945.97 1700 2934.83 1700L2145.17 1700C2134.03 1700 2125 1690.97 2125 1679.83Z" fill="#F2F2F2" fill-rule="evenodd"/><text fill="#191919" font-family="Arial,Arial_MSFontService,sans-serif" font-weight="400" font-size="55" transform="matrix(1 0 0 1 2211.14 1664)">Newton </text><text fill="#191919" font-family="Arial,Arial_MSFontService,sans-serif" font-weight="400" font-size="55" transform="matrix(1 0 0 1 2412.24 1664)">Raphson</text><text fill="#191919" font-family="Arial,Arial_MSFontService,sans-serif" font-weight="400" font-size="55" transform="matrix(1 0 0 1 2646.56 1664)">iterations</text><path d="M2125 1542.33C2125 1534.42 2131.42 1528 2139.33 1528L2940.67 1528C2948.58 1528 2955 1534.42 2955 1542.33L2955 1599.67C2955 1607.58 2948.58 1614 2940.67 1614L2139.33 1614C2131.42 1614 2125 1607.58 2125 1599.67Z" fill="#00B0F0" fill-rule="evenodd"/><text fill="#FFFFFF" font-family="Arial,Arial_MSFontService,sans-serif" font-weight="400" font-size="64" transform="matrix(1 0 0 1 2319.14 1595)">System Solving</text><path d="M2069.53 1636.06 2102.42 1636.39 2102.35 1643.26 2069.47 1642.94ZM2097.94 1626.03 2125.3 1640.06 2097.67 1653.53Z" fill="#D77864"/><path d="M0.0470489-3.43718 45.6819-2.81252 45.5878 4.06184-0.0470489 3.43718ZM41.2401-13.1868 68.5493 0.93832 40.8637 14.3106Z" fill="#D77864" transform="matrix(1 0 0 -1 1172.5 1640.44)"/><path d="M0.0225704-3.43743 61.7497-3.03212 61.7046 3.84273-0.0225704 3.43743ZM57.2342-13.3745 84.6433 0.555774 57.0536 14.1249Z" fill="#D77864" transform="matrix(1 0 0 -1 2955.5 1640.06)"/><path d="M3040 1638.5 3213 1583 3732 1583 3905 1638.5 3732 1694 3213 1694Z" fill="#D9D9D9" fill-rule="evenodd"/><text fill="#191919" font-family="Arial,Arial_MSFontService,sans-serif" font-weight="700" font-size="46" transform="matrix(1 0 0 1 3254.64 1656)">Q </text><text fill="#191919" font-family="Arial,Arial_MSFontService,sans-serif" font-weight="700" font-size="46" transform="matrix(1 0 0 1 3302.77 1656)">limits</text><text fill="#191919" font-family="Arial,Arial_MSFontService,sans-serif" font-weight="700" font-size="46" transform="matrix(1 0 0 1 3434.54 1656)">respected</text><text fill="#191919" font-family="Arial,Arial_MSFontService,sans-serif" font-weight="700" font-size="46" transform="matrix(1 0 0 1 3662.56 1656)">?</text><path d="M0 3.4375-146.669 3.4375-143.231 0-143.231 176.013-146.669 172.576 436.267 172.576 436.267 218.571 429.392 218.571 429.392 176.013 432.829 179.451-150.106 179.451-150.106-3.4375 0-3.4375ZM446.579 213.988 432.829 241.488 419.079 213.988Z" fill="#D77864" transform="matrix(-1 0 0 1 3906.33 1639.5)"/><path d="M0 3.4375-82.4989 3.4375-79.0614 0-79.0614 2276.73-82.4989 2273.29 31.3713 2273.29 31.3713 2280.16-85.9364 2280.16-85.9364-3.4375 0-3.4375ZM26.788 2262.98 54.288 2276.73 26.788 2290.48Z" fill="#D77864" transform="matrix(-6.12323e-17 -1 -1 6.12323e-17 3473.23 1694.79)"/><text fill="#D77864" font-family="Arial,Arial_MSFontService,sans-serif" font-weight="400" font-size="73" transform="matrix(1 0 0 1 3357.13 1748)">no</text><path d="M0 3.4375-82.5013 3.4375-79.0638 0-79.0638 164.334-82.5013 160.897 497.933 160.897 497.933 193.943 491.058 193.943 491.058 164.334 494.495 167.772-85.9388 167.772-85.9388-3.4375 0-3.4375ZM508.245 189.36 494.495 216.86 480.745 189.36Z" fill="#4BB9AA" transform="matrix(-1 0 0 1 3968 1078.5)"/><path d="M204 625.333C204 617.417 210.417 611 218.333 611L1020.67 611C1028.58 611 1035 617.417 1035 625.333L1035 682.667C1035 690.583 1028.58 697 1020.67 697L218.333 697C210.417 697 204 690.583 204 682.667Z" fill="#00B0F0" fill-rule="evenodd"/><text fill="#FFFFFF" font-family="Arial,Arial_MSFontService,sans-serif" font-weight="400" font-size="64" transform="matrix(1 0 0 1 338.345 678)">Voltage </text><text fill="#FFFFFF" font-family="Arial,Arial_MSFontService,sans-serif" font-weight="400" font-size="64" transform="matrix(1 0 0 1 569.712 678)">initialization</text><path d="M622.937 530.479 623.282 588.09 616.407 588.131 616.062 530.52ZM633.566 583.445 619.981 611.027 606.067 583.609Z" fill="#00A6D9"/><text fill="#D77864" font-family="Arial,Arial_MSFontService,sans-serif" font-weight="400" font-size="73" transform="matrix(1 0 0 1 3910.63 1710)">yes</text><text fill="#054191" font-family="Arial,Arial_MSFontService,sans-serif" font-weight="400" font-size="73" transform="matrix(1 0 0 1 1067.95 1902)">no</text><path d="M3.43738-0.0290019 4.24118 95.2395-2.63358 95.2975-3.43738 0.0290019ZM14.5146 90.5693 0.997146 118.184-12.9844 90.8013Z" fill="#00A6D9" transform="matrix(-1 0 0 1 620.497 1992.5)"/><path d="M67 1936.5 288 1881 951 1881 1172 1936.5 951 1992 288 1992Z" fill="#D9D9D9" fill-rule="evenodd"/><text fill="#191919" font-family="Arial,Arial_MSFontService,sans-serif" font-weight="700" font-size="46" transform="matrix(1 0 0 1 392.44 1927)">Phase </text><text fill="#191919" font-family="Arial,Arial_MSFontService,sans-serif" font-weight="700" font-size="46" transform="matrix(1 0 0 1 539.107 1927)">shifter</text><text fill="#191919" font-family="Arial,Arial_MSFontService,sans-serif" font-weight="700" font-size="46" transform="matrix(1 0 0 1 691.503 1927)">control </text><text fill="#191919" font-family="Arial,Arial_MSFontService,sans-serif" font-weight="700" font-size="46" transform="matrix(1 0 0 1 491.555 1982)">respected</text><text fill="#191919" font-family="Arial,Arial_MSFontService,sans-serif" font-weight="700" font-size="46" transform="matrix(1 0 0 1 719.576 1982)">?</text><path d="M1241 1891.17C1241 1878.92 1250.92 1869 1263.17 1869L2046.83 1869C2059.08 1869 2069 1878.92 2069 1891.17L2069 1979.83C2069 1992.08 2059.08 2002 2046.83 2002L1263.17 2002C1250.92 2002 1241 1992.08 1241 1979.83Z" fill="#F2F2F2" fill-rule="evenodd"/><text fill="#191919" font-family="Arial,Arial_MSFontService,sans-serif" font-weight="400" font-size="55" transform="matrix(1 0 0 1 1321.13 1966)">Updating</text><text fill="#191919" font-family="Arial,Arial_MSFontService,sans-serif" font-weight="400" font-size="55" transform="matrix(1 0 0 1 1555.45 1966)">phase </text><text fill="#191919" font-family="Arial,Arial_MSFontService,sans-serif" font-weight="400" font-size="55" transform="matrix(1 0 0 1 1719.88 1966)">shifter</text><text fill="#191919" font-family="Arial,Arial_MSFontService,sans-serif" font-weight="400" font-size="55" transform="matrix(1 0 0 1 1884.88 1966)">taps</text><path d="M1241 1839.33C1241 1831.42 1247.42 1825 1255.33 1825L2054.67 1825C2062.58 1825 2069 1831.42 2069 1839.33L2069 1896.67C2069 1904.58 2062.58 1911 2054.67 1911L1255.33 1911C1247.42 1911 1241 1904.58 1241 1896.67Z" fill="#054191" fill-rule="evenodd"/><text fill="#FFFFFF" font-family="Arial,Arial_MSFontService,sans-serif" font-weight="400" font-size="64" transform="matrix(1 0 0 1 1460.92 1892)">PhaseControl</text><path d="M2125 1896.17C2125 1885.03 2134.03 1876 2145.17 1876L2934.83 1876C2945.97 1876 2955 1885.03 2955 1896.17L2955 1976.83C2955 1987.97 2945.97 1997 2934.83 1997L2145.17 1997C2134.03 1997 2125 1987.97 2125 1976.83Z" fill="#F2F2F2" fill-rule="evenodd"/><text fill="#191919" font-family="Arial,Arial_MSFontService,sans-serif" font-weight="400" font-size="55" transform="matrix(1 0 0 1 2211.14 1961)">Newton </text><text fill="#191919" font-family="Arial,Arial_MSFontService,sans-serif" font-weight="400" font-size="55" transform="matrix(1 0 0 1 2412.24 1961)">Raphson</text><text fill="#191919" font-family="Arial,Arial_MSFontService,sans-serif" font-weight="400" font-size="55" transform="matrix(1 0 0 1 2646.56 1961)">iterations</text><path d="M2125 1839.33C2125 1831.42 2131.42 1825 2139.33 1825L2940.67 1825C2948.58 1825 2955 1831.42 2955 1839.33L2955 1896.67C2955 1904.58 2948.58 1911 2940.67 1911L2139.33 1911C2131.42 1911 2125 1904.58 2125 1896.67Z" fill="#00B0F0" fill-rule="evenodd"/><text fill="#FFFFFF" font-family="Arial,Arial_MSFontService,sans-serif" font-weight="400" font-size="64" transform="matrix(1 0 0 1 2319.14 1892)">System Solving</text><path d="M2069.53 1933.06 2102.42 1933.39 2102.35 1940.26 2069.47 1939.94ZM2097.94 1923.03 2125.3 1937.06 2097.67 1950.53Z" fill="#054191"/><path d="M0.0470489-3.43718 45.6819-2.81252 45.5878 4.06184-0.0470489 3.43718ZM41.2401-13.1868 68.5493 0.93832 40.8637 14.3106Z" fill="#054191" transform="matrix(1 0 0 -1 1172.5 1937.44)"/><path d="M0.0225704-3.43743 61.7497-3.03212 61.7046 3.84273-0.0225704 3.43743ZM57.2342-13.3745 84.6433 0.555774 57.0536 14.1249Z" fill="#054191" transform="matrix(1 0 0 -1 2955.5 1937.06)"/><path d="M3040 1935.5 3213 1880 3732 1880 3905 1935.5 3732 1991 3213 1991Z" fill="#D9D9D9" fill-rule="evenodd"/><text fill="#191919" font-family="Arial,Arial_MSFontService,sans-serif" font-weight="700" font-size="46" transform="matrix(1 0 0 1 3329.41 1926)">Phase </text><text fill="#191919" font-family="Arial,Arial_MSFontService,sans-serif" font-weight="700" font-size="46" transform="matrix(1 0 0 1 3476.07 1926)">shifter</text><text fill="#191919" font-family="Arial,Arial_MSFontService,sans-serif" font-weight="700" font-size="46" transform="matrix(1 0 0 1 3260.66 1981)">control </text><text fill="#191919" font-family="Arial,Arial_MSFontService,sans-serif" font-weight="700" font-size="46" transform="matrix(1 0 0 1 3428.52 1981)">respected</text><text fill="#191919" font-family="Arial,Arial_MSFontService,sans-serif" font-weight="700" font-size="46" transform="matrix(1 0 0 1 3656.54 1981)">?</text><path d="M0 3.4375-82.4989 3.4375-79.0614 0-79.0614 2276.73-82.4989 2273.29 31.3713 2273.29 31.3713 2280.16-85.9364 2280.16-85.9364-3.4375 0-3.4375ZM26.788 2262.98 54.288 2276.73 26.788 2290.48Z" fill="#054191" transform="matrix(-6.12323e-17 -1 -1 6.12323e-17 3473.23 1991.79)"/><text fill="#054191" font-family="Arial,Arial_MSFontService,sans-serif" font-weight="400" font-size="73" transform="matrix(1 0 0 1 3357.13 2045)">no</text><text fill="#054191" font-family="Arial,Arial_MSFontService,sans-serif" font-weight="400" font-size="73" transform="matrix(1 0 0 1 3910.63 2003)">yes</text><text fill="#AA96C3" font-family="Arial,Arial_MSFontService,sans-serif" font-weight="400" font-size="73" transform="matrix(1 0 0 1 1067.95 1317)">no</text><path d="M623.937 1407.5 623.938 1577.41 617.063 1577.41 617.062 1407.5ZM634.25 1572.83 620.5 1600.33 606.75 1572.83Z" fill="#00A6D9"/><path d="M67 1351.5 288 1296 951 1296 1172 1351.5 951 1407 288 1407Z" fill="#D9D9D9" fill-rule="evenodd"/><text fill="#191919" font-family="Arial,Arial_MSFontService,sans-serif" font-weight="700" font-size="46" transform="matrix(1 0 0 1 333.43 1341)">HVDC AC </text><text fill="#191919" font-family="Arial,Arial_MSFontService,sans-serif" font-weight="700" font-size="46" transform="matrix(1 0 0 1 555.148 1341)">emulation</text><text fill="#191919" font-family="Arial,Arial_MSFontService,sans-serif" font-weight="700" font-size="46" transform="matrix(1 0 0 1 783.742 1341)">mode </text><text fill="#191919" font-family="Arial,Arial_MSFontService,sans-serif" font-weight="700" font-size="46" transform="matrix(1 0 0 1 491.555 1396)">respected</text><text fill="#191919" font-family="Arial,Arial_MSFontService,sans-serif" font-weight="700" font-size="46" transform="matrix(1 0 0 1 719.576 1396)">?</text><text fill="#00A6D9" font-family="Arial,Arial_MSFontService,sans-serif" font-weight="400" font-size="73" transform="matrix(1 0 0 1 638.804 1484)">yes</text><path d="M1241 1305.33C1241 1293 1251 1283 1263.33 1283L2046.67 1283C2059 1283 2069 1293 2069 1305.33L2069 1394.67C2069 1407 2059 1417 2046.67 1417L1263.33 1417C1251 1417 1241 1407 1241 1394.67Z" fill="#F2F2F2" fill-rule="evenodd"/><text fill="#191919" font-family="Arial,Arial_MSFontService,sans-serif" font-weight="400" font-size="55" transform="matrix(1 0 0 1 1378.99 1381)">Switching</text><text fill="#191919" font-family="Arial,Arial_MSFontService,sans-serif" font-weight="400" font-size="55" transform="matrix(1 0 0 1 1628.78 1381)">to saturation</text><path d="M1241 1253.5C1241 1245.49 1247.49 1239 1255.5 1239L2054.5 1239C2062.51 1239 2069 1245.49 2069 1253.5L2069 1311.5C2069 1319.51 2062.51 1326 2054.5 1326L1255.5 1326C1247.49 1326 1241 1319.51 1241 1311.5Z" fill="#AA96C3" fill-rule="evenodd"/><text fill="#FFFFFF" font-family="Arial,Arial_MSFontService,sans-serif" font-weight="400" font-size="64" transform="matrix(1 0 0 1 1318.26 1306)">HvdcAcEmulationLimits</text><path d="M2125 1310.17C2125 1299.03 2134.03 1290 2145.17 1290L2934.83 1290C2945.97 1290 2955 1299.03 2955 1310.17L2955 1390.83C2955 1401.97 2945.97 1411 2934.83 1411L2145.17 1411C2134.03 1411 2125 1401.97 2125 1390.83Z" fill="#F2F2F2" fill-rule="evenodd"/><text fill="#191919" font-family="Arial,Arial_MSFontService,sans-serif" font-weight="400" font-size="55" transform="matrix(1 0 0 1 2211.14 1376)">Newton </text><text fill="#191919" font-family="Arial,Arial_MSFontService,sans-serif" font-weight="400" font-size="55" transform="matrix(1 0 0 1 2412.24 1376)">Raphson</text><text fill="#191919" font-family="Arial,Arial_MSFontService,sans-serif" font-weight="400" font-size="55" transform="matrix(1 0 0 1 2646.56 1376)">iterations</text><path d="M2125 1253.5C2125 1245.49 2131.49 1239 2139.5 1239L2940.5 1239C2948.51 1239 2955 1245.49 2955 1253.5L2955 1311.5C2955 1319.51 2948.51 1326 2940.5 1326L2139.5 1326C2131.49 1326 2125 1319.51 2125 1311.5Z" fill="#00B0F0" fill-rule="evenodd"/><text fill="#FFFFFF" font-family="Arial,Arial_MSFontService,sans-serif" font-weight="400" font-size="64" transform="matrix(1 0 0 1 2319.14 1306)">System Solving</text><path d="M2069.53 1347.06 2102.42 1347.39 2102.35 1354.27 2069.47 1353.94ZM2097.94 1337.03 2125.3 1351.06 2097.67 1364.53Z" fill="#AA96C3"/><path d="M0.0470489-3.43718 45.6819-2.81252 45.5878 4.06184-0.0470489 3.43718ZM41.2401-13.1868 68.5493 0.93832 40.8637 14.3106Z" fill="#AA96C3" transform="matrix(1 0 0 -1 1172.5 1351.44)"/><path d="M0.0225704-3.43743 61.7497-3.03212 61.7046 3.84273-0.0225704 3.43743ZM57.2342-13.3745 84.6433 0.555774 57.0536 14.1249Z" fill="#AA96C3" transform="matrix(1 0 0 -1 2955.5 1351.06)"/><path d="M3040 1350.5 3213 1295 3732 1295 3905 1350.5 3732 1406 3213 1406Z" fill="#D9D9D9" fill-rule="evenodd"/><text fill="#191919" font-family="Arial,Arial_MSFontService,sans-serif" font-weight="700" font-size="46" transform="matrix(1 0 0 1 3253.78 1340)">HVDC AC </text><text fill="#191919" font-family="Arial,Arial_MSFontService,sans-serif" font-weight="700" font-size="46" transform="matrix(1 0 0 1 3475.5 1340)">emulation</text><text fill="#191919" font-family="Arial,Arial_MSFontService,sans-serif" font-weight="700" font-size="46" transform="matrix(1 0 0 1 3277.27 1395)">mode </text><text fill="#191919" font-family="Arial,Arial_MSFontService,sans-serif" font-weight="700" font-size="46" transform="matrix(1 0 0 1 3411.91 1395)">respected</text><text fill="#191919" font-family="Arial,Arial_MSFontService,sans-serif" font-weight="700" font-size="46" transform="matrix(1 0 0 1 3639.93 1395)">?</text><path d="M0 3.4375-82.4989 3.4375-79.0614 0-79.0614 2276.73-82.4989 2273.29 31.3713 2273.29 31.3713 2280.16-85.9364 2280.16-85.9364-3.4375 0-3.4375ZM26.788 2262.98 54.288 2276.73 26.788 2290.48Z" fill="#AA96C3" transform="matrix(-6.12323e-17 -1 -1 6.12323e-17 3473.23 1405.79)"/><text fill="#AA96C3" font-family="Arial,Arial_MSFontService,sans-serif" font-weight="400" font-size="73" transform="matrix(1 0 0 1 3357.13 1460)">no</text><text fill="#AA96C3" font-family="Arial,Arial_MSFontService,sans-serif" font-weight="400" font-size="73" transform="matrix(1 0 0 1 3910.63 1421)">yes</text><path d="M0 3.4375-146.669 3.4375-143.231 0-143.231 160.287-146.669 156.85 436.267 156.85 436.267 210.039 429.392 210.039 429.392 160.287 432.829 163.725-150.106 163.725-150.106-3.4375 0-3.4375ZM446.579 205.455 432.829 232.955 419.079 205.455Z" fill="#AA96C3" transform="matrix(-1 0 0 1 3906.33 1350.5)"/><path d="M3905.56 1932.71 4102 1932.71 4098.56 1936.15 4098.56 731.5 4102 734.938 641.414 734.938 641.414 728.062 4105.43 728.062 4105.43 1939.58 3905.56 1939.58ZM646 745.25 618.5 731.5 646 717.75Z" fill="#054191"/></g></svg>