<svg width="1063" height="1506" xmlns="http://www.w3.org/2000/svg" xmlns:xlink="http://www.w3.org/1999/xlink" xml:space="preserve" overflow="hidden"><g transform="translate(-2762 -707)"><path d="M2762 1519.67C2762 1490.58 2785.58 1467 2814.67 1467L3772.33 1467C3801.42 1467 3825 1490.58 3825 1519.67L3825 1730.33C3825 1759.42 3801.42 1783 3772.33 1783L2814.67 1783C2785.58 1783 2762 1759.42 2762 1730.33Z" fill="#FEF1D4" fill-rule="evenodd"/><text fill="#FFFFFF" font-family="Arial,Arial_MSFontService,sans-serif" font-weight="400" font-size="73" transform="matrix(1 0 0 1 3041.12 1652)">System Solving</text><path d="M2801 2078.83C2801 2065.12 2812.12 2054 2825.83 2054L3763.17 2054C3776.88 2054 3788 2065.12 3788 2078.83L3788 2178.17C3788 2191.88 3776.88 2203 3763.17 2203L2825.83 2203C2812.12 2203 2801 2191.88 2801 2178.17Z" fill="#F2F2F2" fill-rule="evenodd"/><text fill="#191919" font-family="Arial,Arial_MSFontService,sans-serif" font-weight="400" font-size="55" transform="matrix(1 0 0 1 2947.31 2166)">Power flow equations solved</text><path d="M2801 1629.67C2801 1615.49 2812.49 1604 2826.67 1604L3762.33 1604C3776.51 1604 3788 1615.49 3788 1629.67L3788 1732.33C3788 1746.51 3776.51 1758 3762.33 1758L2826.67 1758C2812.49 1758 2801 1746.51 2801 1732.33Z" fill="#F2F2F2" fill-rule="evenodd"/><text fill="#191919" font-family="Arial,Arial_MSFontService,sans-serif" font-weight="400" font-size="55" transform="matrix(1 0 0 1 2964.21 1701)">Newton</text><text fill="#191919" font-family="Arial,Arial_MSFontService,sans-serif" font-weight="400" font-size="55" transform="matrix(1 0 0 1 3149.84 1701)">-</text><text fill="#191919" font-family="Arial,Arial_MSFontService,sans-serif" font-weight="400" font-size="55" transform="matrix(1 0 0 1 3168.17 1701)">Raphson iterations</text><path d="M2801 1519.83C2801 1506.12 2812.12 1495 2825.83 1495L3763.17 1495C3776.88 1495 3788 1506.12 3788 1519.83L3788 1619.17C3788 1632.88 3776.88 1644 3763.17 1644L2825.83 1644C2812.12 1644 2801 1632.88 2801 1619.17Z" fill="#00B0F0" fill-rule="evenodd"/><text fill="#FFFFFF" font-family="Arial,Arial_MSFontService,sans-serif" font-weight="400" font-size="73" transform="matrix(1 0 0 1 3042.13 1596)">System Solving</text><path d="M2801 1965C2801 1951.19 2812.19 1940 2826 1940L3763 1940C3776.81 1940 3788 1951.19 3788 1965L3788 2065C3788 2078.81 3776.81 2090 3763 2090L2826 2090C2812.19 2090 2801 2078.81 2801 2065Z" fill="#00B0F0" fill-rule="evenodd"/><text fill="#FFFFFF" font-family="Arial,Arial_MSFontService,sans-serif" font-weight="400" font-size="83" transform="matrix(1 0 0 1 3014.91 2045)">Output network</text><path d="M3297.94 1232.5 3297.94 1471.9 3291.06 1471.9 3291.06 1232.5ZM3308.25 1467.32 3294.5 1494.82 3280.75 1467.32Z" fill="#AA96C3"/><path d="M3297.94 1758.5 3297.94 1918.18 3291.06 1918.18 3291.06 1758.5ZM3308.25 1913.6 3294.5 1941.1 3280.75 1913.6Z" fill="#AA96C3"/><text fill="#AA96C3" font-family="Arial,Arial_MSFontService,sans-serif" font-weight="400" font-size="83" transform="matrix(1 0 0 1 3354.33 1883)">V </text><text fill="#AA96C3" font-family="Arial,Arial_MSFontService,sans-serif" font-weight="400" font-size="83" transform="matrix(1 0 0 1 3432.25 1883)">,</text><text fill="#AA96C3" font-family="Arial,Arial_MSFontService,sans-serif" font-weight="400" font-size="83" transform="matrix(1 0 0 1 3478.08 1883)">Φ</text><text fill="#AA96C3" font-family="Arial,Arial_MSFontService,sans-serif" font-weight="400" font-size="83" transform="matrix(1 0 0 1 3354.33 1442)">V</text><text fill="#AA96C3" font-family="Arial,Arial_MSFontService,sans-serif" font-weight="400" font-size="50" transform="matrix(1 0 0 1 3409.33 1442)">0 </text><text fill="#AA96C3" font-family="Arial,Arial_MSFontService,sans-serif" font-weight="400" font-size="83" transform="matrix(1 0 0 1 3451.16 1442)">, </text><text fill="#AA96C3" font-family="Arial,Arial_MSFontService,sans-serif" font-weight="400" font-size="83" transform="matrix(1 0 0 1 3496.99 1442)">Φ</text><text fill="#AA96C3" font-family="Arial,Arial_MSFontService,sans-serif" font-weight="400" font-size="50" transform="matrix(1 0 0 1 3562.87 1442)">0</text><path d="M3297.94 954.5 3297.94 1060.22 3291.06 1060.22 3291.06 954.5ZM3308.25 1055.64 3294.5 1083.14 3280.75 1055.64Z" fill="#AA96C3"/><path d="M2801 842.334C2801 829.999 2811 820 2823.33 820L3765.67 820C3778 820 3788 829.999 3788 842.334L3788 931.666C3788 944.001 3778 954 3765.67 954L2823.33 954C2811 954 2801 944.001 2801 931.666Z" fill="#F2F2F2" fill-rule="evenodd"/><text fill="#191919" font-family="Arial,Arial_MSFontService,sans-serif" font-weight="400" font-size="55" transform="matrix(1 0 0 1 3064.19 918)">No state computed</text><path d="M2801 731.834C2801 718.119 2812.12 707 2825.83 707L3763.17 707C3776.88 707 3788 718.119 3788 731.834L3788 831.167C3788 844.883 3776.88 856.001 3763.17 856.001L2825.83 856.001C2812.12 856.001 2801 844.883 2801 831.167Z" fill="#00B0F0" fill-rule="evenodd"/><text fill="#FFFFFF" font-family="Arial,Arial_MSFontService,sans-serif" font-weight="400" font-size="83" transform="matrix(1 0 0 1 3047 812)">Input network</text><path d="M2801 1224.17C2801 1212.48 2810.48 1203 2822.17 1203L3766.83 1203C3778.52 1203 3788 1212.48 3788 1224.17L3788 1308.83C3788 1320.52 3778.52 1330 3766.83 1330L2822.17 1330C2810.48 1330 2801 1320.52 2801 1308.83Z" fill="#F2F2F2" fill-rule="evenodd"/><text fill="#191919" font-family="Arial,Arial_MSFontService,sans-serif" font-weight="400" font-size="55" transform="matrix(1 0 0 1 2993.14 1294)">State variables initialized</text><path d="M2801 1107.83C2801 1094.12 2812.12 1083 2825.83 1083L3763.17 1083C3776.88 1083 3788 1094.12 3788 1107.83L3788 1207.17C3788 1220.88 3776.88 1232 3763.17 1232L2825.83 1232C2812.12 1232 2801 1220.88 2801 1207.17Z" fill="#00B0F0" fill-rule="evenodd"/><text fill="#FFFFFF" font-family="Arial,Arial_MSFontService,sans-serif" font-weight="400" font-size="73" transform="matrix(1 0 0 1 2973.4 1184)">Voltage initialization</text></g></svg>