<svg width="1062" height="1506" xmlns="http://www.w3.org/2000/svg" xmlns:xlink="http://www.w3.org/1999/xlink" xml:space="preserve" overflow="hidden"><g transform="translate(-1375 -707)"><path d="M1375 1519.67C1375 1490.58 1398.58 1467 1427.67 1467L2384.33 1467C2413.42 1467 2437 1490.58 2437 1519.67L2437 1730.33C2437 1759.42 2413.42 1783 2384.33 1783L1427.67 1783C1398.58 1783 1375 1759.42 1375 1730.33Z" fill="#3A3A3A" fill-rule="evenodd"/><text fill="#FFFFFF" font-family="Arial,Arial_MSFontService,sans-serif" font-weight="400" font-size="73" transform="matrix(1 0 0 1 1653.76 1652)">System Solving</text><path d="M1414 2078.83C1414 2065.12 1425.12 2054 1438.83 2054L2376.17 2054C2389.88 2054 2401 2065.12 2401 2078.83L2401 2178.17C2401 2191.88 2389.88 2203 2376.17 2203L1438.83 2203C1425.12 2203 1414 2191.88 1414 2178.17Z" fill="#F2F2F2" fill-rule="evenodd"/><text fill="#191919" font-family="Arial,Arial_MSFontService,sans-serif" font-weight="400" font-size="55" transform="matrix(1 0 0 1 1559.95 2166)">Power flow equations solved</text><path d="M1414 1629.67C1414 1615.49 1425.49 1604 1439.67 1604L2375.33 1604C2389.51 1604 2401 1615.49 2401 1629.67L2401 1732.33C2401 1746.51 2389.51 1758 2375.33 1758L1439.67 1758C1425.49 1758 1414 1746.51 1414 1732.33Z" fill="#F2F2F2" fill-rule="evenodd"/><text fill="#191919" font-family="Arial,Arial_MSFontService,sans-serif" font-weight="400" font-size="55" transform="matrix(1 0 0 1 1576.85 1701)">Newton</text><text fill="#191919" font-family="Arial,Arial_MSFontService,sans-serif" font-weight="400" font-size="55" transform="matrix(1 0 0 1 1762.48 1701)">-</text><text fill="#191919" font-family="Arial,Arial_MSFontService,sans-serif" font-weight="400" font-size="55" transform="matrix(1 0 0 1 1780.81 1701)">Raphson iterations</text><path d="M1414 1519.83C1414 1506.12 1425.12 1495 1438.83 1495L2376.17 1495C2389.88 1495 2401 1506.12 2401 1519.83L2401 1619.17C2401 1632.88 2389.88 1644 2376.17 1644L1438.83 1644C1425.12 1644 1414 1632.88 1414 1619.17Z" fill="#00B0F0" fill-rule="evenodd"/><text fill="#FFFFFF" font-family="Arial,Arial_MSFontService,sans-serif" font-weight="400" font-size="73" transform="matrix(1 0 0 1 1654.77 1596)">System Solving</text><path d="M1414 1965C1414 1951.19 1425.19 1940 1439 1940L2376 1940C2389.81 1940 2401 1951.19 2401 1965L2401 2065C2401 2078.81 2389.81 2090 2376 2090L1439 2090C1425.19 2090 1414 2078.81 1414 2065Z" fill="#00B0F0" fill-rule="evenodd"/><text fill="#FFFFFF" font-family="Arial,Arial_MSFontService,sans-serif" font-weight="400" font-size="83" transform="matrix(1 0 0 1 1627.56 2045)">Output network</text><path d="M1910.94 1232.5 1910.94 1471.9 1904.06 1471.9 1904.06 1232.5ZM1921.25 1467.32 1907.5 1494.82 1893.75 1467.32Z" fill="#EEEAF3"/><path d="M1910.94 1758.5 1910.94 1918.18 1904.06 1918.18 1904.06 1758.5ZM1921.25 1913.6 1907.5 1941.1 1893.75 1913.6Z" fill="#EEEAF3"/><text fill="#EEEAF3" font-family="Arial,Arial_MSFontService,sans-serif" font-weight="400" font-size="83" transform="matrix(1 0 0 1 1966.97 1883)">V </text><text fill="#EEEAF3" font-family="Arial,Arial_MSFontService,sans-serif" font-weight="400" font-size="83" transform="matrix(1 0 0 1 2044.89 1883)">,</text><text fill="#EEEAF3" font-family="Arial,Arial_MSFontService,sans-serif" font-weight="400" font-size="83" transform="matrix(1 0 0 1 2090.72 1883)">Φ</text><text fill="#EEEAF3" font-family="Arial,Arial_MSFontService,sans-serif" font-weight="400" font-size="83" transform="matrix(1 0 0 1 1966.97 1442)">V</text><text fill="#EEEAF3" font-family="Arial,Arial_MSFontService,sans-serif" font-weight="400" font-size="50" transform="matrix(1 0 0 1 2021.97 1442)">0 </text><text fill="#EEEAF3" font-family="Arial,Arial_MSFontService,sans-serif" font-weight="400" font-size="83" transform="matrix(1 0 0 1 2063.8 1442)">, </text><text fill="#EEEAF3" font-family="Arial,Arial_MSFontService,sans-serif" font-weight="400" font-size="83" transform="matrix(1 0 0 1 2109.63 1442)">Φ</text><text fill="#EEEAF3" font-family="Arial,Arial_MSFontService,sans-serif" font-weight="400" font-size="50" transform="matrix(1 0 0 1 2175.52 1442)">0</text><path d="M1910.94 954.5 1910.94 1060.22 1904.06 1060.22 1904.06 954.5ZM1921.25 1055.64 1907.5 1083.14 1893.75 1055.64Z" fill="#EEEAF3"/><path d="M1414 842.334C1414 829.999 1424 820 1436.33 820L2378.67 820C2391 820 2401 829.999 2401 842.334L2401 931.666C2401 944.001 2391 954 2378.67 954L1436.33 954C1424 954 1414 944.001 1414 931.666Z" fill="#F2F2F2" fill-rule="evenodd"/><text fill="#191919" font-family="Arial,Arial_MSFontService,sans-serif" font-weight="400" font-size="55" transform="matrix(1 0 0 1 1676.83 918)">No state computed</text><path d="M1414 731.834C1414 718.119 1425.12 707 1438.83 707L2376.17 707C2389.88 707 2401 718.119 2401 731.834L2401 831.167C2401 844.883 2389.88 856.001 2376.17 856.001L1438.83 856.001C1425.12 856.001 1414 844.883 1414 831.167Z" fill="#00B0F0" fill-rule="evenodd"/><text fill="#FFFFFF" font-family="Arial,Arial_MSFontService,sans-serif" font-weight="400" font-size="83" transform="matrix(1 0 0 1 1659.64 812)">Input network</text><path d="M1414 1224.17C1414 1212.48 1423.48 1203 1435.17 1203L2379.83 1203C2391.52 1203 2401 1212.48 2401 1224.17L2401 1308.83C2401 1320.52 2391.52 1330 2379.83 1330L1435.17 1330C1423.48 1330 1414 1320.52 1414 1308.83Z" fill="#F2F2F2" fill-rule="evenodd"/><text fill="#191919" font-family="Arial,Arial_MSFontService,sans-serif" font-weight="400" font-size="55" transform="matrix(1 0 0 1 1605.78 1294)">State variables initialized</text><path d="M1414 1107.83C1414 1094.12 1425.12 1083 1438.83 1083L2376.17 1083C2389.88 1083 2401 1094.12 2401 1107.83L2401 1207.17C2401 1220.88 2389.88 1232 2376.17 1232L1438.83 1232C1425.12 1232 1414 1220.88 1414 1207.17Z" fill="#00B0F0" fill-rule="evenodd"/><text fill="#FFFFFF" font-family="Arial,Arial_MSFontService,sans-serif" font-weight="400" font-size="73" transform="matrix(1 0 0 1 1586.04 1184)">Voltage initialization</text></g></svg>